<svg width="63" height="64" viewBox="0 0 63 64" fill="none" xmlns="http://www.w3.org/2000/svg">
<path d="M31.1713 63.5088C48.3867 63.5088 62.3425 49.4058 62.3425 32.0088C62.3425 14.6118 48.3867 0.508789 31.1713 0.508789C13.9559 0.508789 0 14.6118 0 32.0088C0 49.4058 13.9559 63.5088 31.1713 63.5088Z" fill="#F7931A"/>
<path d="M44.8709 28.1107C45.4826 23.9842 42.3713 21.7654 38.1203 20.2849L39.4997 14.6936L36.1332 13.8471L34.7889 19.2907C33.9044 19.0662 32.9966 18.8575 32.0906 18.6489L33.4446 13.1698L30.0781 12.3213L28.6988 17.9106C27.9663 17.7413 27.2455 17.5759 26.548 17.3987L26.5519 17.381L21.9074 16.2096L21.0112 19.8439C21.0112 19.8439 23.5107 20.4227 23.4581 20.4581C24.8219 20.8027 25.0674 21.7142 25.0264 22.4387L23.4562 28.8076C23.5497 28.8312 23.6705 28.8667 23.8069 28.9198L23.4504 28.8312L21.2489 37.7536C21.0813 38.171 20.6586 38.799 19.704 38.5608C19.739 38.61 17.257 37.9446 17.257 37.9446L15.5854 41.8388L19.9689 42.9432C20.7833 43.1499 21.582 43.3665 22.3671 43.5693L20.9742 49.2235L24.3387 50.0701L25.7181 44.4789C26.6376 44.7289 27.5299 44.9612 28.4027 45.1817L27.0273 50.7493L30.3938 51.5959L31.7867 45.9534C37.53 47.052 41.8472 46.609 43.6649 41.3604C45.13 37.1354 43.5928 34.6961 40.5712 33.1074C42.7726 32.5955 44.4286 31.1327 44.8709 28.1107V28.1107ZM37.1755 39.0136C36.1371 43.2405 29.0943 40.9548 26.811 40.3819L28.6618 32.8908C30.9451 33.4676 38.2645 34.6075 37.1755 39.0136ZM38.2177 28.0496C37.269 31.8946 31.4088 29.9396 29.5093 29.4612L31.1847 22.669C33.0842 23.1474 39.2074 24.0393 38.2177 28.0496Z" fill="white"/>
</svg>
