<svg width="63" height="63" viewBox="0 0 63 63" fill="none" xmlns="http://www.w3.org/2000/svg">
<path d="M31.5 63C48.897 63 63 48.897 63 31.5C63 14.103 48.897 0 31.5 0C14.103 0 0 14.103 0 31.5C0 48.897 14.103 63 31.5 63Z" fill="#C3A634"/>
<path fill-rule="evenodd" clip-rule="evenodd" d="M26.082 28.7634H34.5752V33.264H26.082V42.7494H31.439C33.5593 42.7494 35.2938 42.464 36.6443 41.8891C37.9949 41.3162 39.0541 40.5228 39.8239 39.5069C40.6112 38.4505 41.1472 37.2284 41.391 35.9336C41.6754 34.4731 41.8139 32.9879 41.8044 31.5C41.8139 30.0121 41.6754 28.5269 41.391 27.0664C41.1474 25.7715 40.6114 24.5494 39.8239 23.4931C39.0541 22.4772 37.9929 21.6838 36.6443 21.1109C35.2938 20.536 33.5593 20.2506 31.439 20.2506H26.082V28.7654V28.7634ZM20.6364 33.264H17.7188V28.7654H20.6364V15.75H33.5298C35.912 15.75 37.9733 16.1634 39.7156 16.9844C41.4579 17.8093 42.8794 18.9335 43.9838 20.3608C45.0863 21.7862 45.9073 23.4557 46.4448 25.3673C46.9822 27.279 47.25 29.3245 47.25 31.5C47.2635 33.5716 46.9919 35.6351 46.4428 37.6327C45.9073 39.5423 45.0863 41.2138 43.9819 42.6392C42.8794 44.0665 41.4579 45.1907 39.7156 46.0156C37.9733 46.8385 35.91 47.25 33.5298 47.25H20.6364V33.264V33.264Z" fill="white"/>
</svg>
