<svg width="63" height="63" viewBox="0 0 63 63" fill="none" xmlns="http://www.w3.org/2000/svg">
<path d="M31.5 63C48.897 63 63 48.897 63 31.5C63 14.103 48.897 0 31.5 0C14.103 0 0 14.103 0 31.5C0 48.897 14.103 63 31.5 63Z" fill="#627EEA"/>
<path d="M31.5 7.875V25.3378L46.2597 31.9331L31.5 7.875Z" fill="white" fill-opacity="0.602"/>
<path d="M32.4804 7.875L17.7188 31.9331L32.4804 25.3378V7.875Z" fill="white"/>
<path d="M31.5 44.0055V55.8712L46.2696 35.4375L31.5 44.0055Z" fill="white" fill-opacity="0.602"/>
<path d="M32.4804 55.8712V44.0035L17.7188 35.4375L32.4804 55.8712Z" fill="white"/>
<path d="M31.5 40.7551L46.2597 32.1851L31.5 25.5938V40.7551Z" fill="#FBFBFB" fill-opacity="0.2"/>
<path d="M17.7188 32.1851L32.4804 40.7551V25.5938L17.7188 32.1851Z" fill="white" fill-opacity="0.602"/>
</svg>
