<svg width="63" height="63" viewBox="0 0 63 63" fill="none" xmlns="http://www.w3.org/2000/svg">
<path d="M31.5 63C48.897 63 63 48.897 63 31.5C63 14.103 48.897 0 31.5 0C14.103 0 0 14.103 0 31.5C0 48.897 14.103 63 31.5 63Z" fill="#172852"/>
<path d="M25.3731 14.0774C29.0617 12.6977 33.2134 12.6945 36.9714 13.8285C41.8633 15.3468 45.993 19.0386 48.1507 23.6723C48.7461 24.9921 49.3162 26.3687 49.3729 27.8366C46.623 26.2427 43.6084 25.2095 40.5876 24.2676C35.7555 22.5257 30.6966 21.3161 26.1228 18.9221C25.0581 18.2858 23.7004 17.6337 23.4106 16.3076C23.2941 15.161 24.5068 14.5215 25.3731 14.0774Z" fill="#FFD83D"/>
<path d="M14.2381 25.2284C15.3059 22.3304 17.0573 19.6403 19.4356 17.6463C20.0403 22.6202 22.1571 27.4271 25.6536 31.0433C29.8463 35.3997 35.8187 38.0741 41.895 37.9733C44.3079 38.0489 46.6673 37.4913 49.0203 37.0409C46.7051 45.4073 37.5354 50.9608 29.0399 49.6252C23.9117 48.97 19.1772 45.9334 16.3202 41.6462C13.0978 36.9086 12.2851 30.618 14.2381 25.2284Z" fill="#FFD83D"/>
<path d="M40.5879 24.2676C43.6087 25.2094 46.6233 26.2426 49.3732 27.8365L49.5591 27.9342C49.8142 29.8525 50.0001 31.8087 49.6599 33.7302C48.277 33.1443 47.1556 32.1142 45.9838 31.2039C43.7284 29.3265 41.4258 27.1782 40.5879 24.2676Z" fill="#FF6F03"/>
</svg>
