<svg width="32" height="32" viewBox="0 0 32 32" fill="none" xmlns="http://www.w3.org/2000/svg">
<path d="M16 32C24.8366 32 32 24.8366 32 16C32 7.16344 24.8366 0 16 0C7.16344 0 0 7.16344 0 16C0 24.8366 7.16344 32 16 32Z" fill="#FF007A"/>
<path d="M12.2456 5.08315C11.9606 5.03915 11.9486 5.03315 12.0826 5.01315C12.3396 4.97315 12.9476 5.02815 13.3666 5.12715C14.3436 5.36015 15.2326 5.95515 16.1826 7.01215L16.4346 7.29215L16.7946 7.23515C18.3146 6.99015 19.8616 7.18515 21.1546 7.78215C21.5106 7.94615 22.0716 8.27315 22.1416 8.35815C22.1646 8.38415 22.2056 8.55715 22.2326 8.74115C22.3286 9.37815 22.2806 9.86615 22.0866 10.2312C21.9806 10.4292 21.9746 10.4912 22.0456 10.6612C22.0793 10.7314 22.1321 10.7907 22.1978 10.8324C22.2636 10.8742 22.3397 10.8966 22.4176 10.8972C22.7396 10.8972 23.0856 10.3772 23.2456 9.65415L23.3096 9.36715L23.4356 9.51015C24.1276 10.2942 24.6706 11.3632 24.7636 12.1232L24.7886 12.3222L24.6716 12.1422C24.4716 11.8322 24.2716 11.6202 24.0136 11.4492C23.5496 11.1422 23.0586 11.0382 21.7586 10.9692C20.5846 10.9072 19.9196 10.8072 19.2616 10.5922C18.1406 10.2272 17.5756 9.74015 16.2436 7.99315C15.6526 7.21715 15.2866 6.78815 14.9236 6.44315C14.0966 5.65715 13.2846 5.24515 12.2456 5.08315Z" fill="white"/>
<path d="M22.4774 7.402C22.5074 6.882 22.5774 6.539 22.7194 6.226C22.7754 6.102 22.8284 6 22.8364 6C22.8275 6.0702 22.809 6.13884 22.7814 6.204C22.6784 6.508 22.6614 6.924 22.7324 7.407C22.8224 8.021 22.8744 8.109 23.5224 8.772C23.8274 9.083 24.1814 9.475 24.3094 9.644L24.5424 9.95L24.3094 9.731C24.0244 9.464 23.3684 8.941 23.2234 8.867C23.1264 8.817 23.1114 8.818 23.0514 8.877C22.9964 8.933 22.9844 9.015 22.9774 9.406C22.9654 10.014 22.8824 10.406 22.6814 10.796C22.5734 11.006 22.5564 10.962 22.6544 10.723C22.7274 10.545 22.7344 10.467 22.7344 9.878C22.7344 8.694 22.5934 8.41 21.7684 7.922C21.5201 7.77796 21.2652 7.64581 21.0044 7.526C20.8755 7.47431 20.7506 7.41349 20.6304 7.344C20.6534 7.321 21.4574 7.555 21.7804 7.68C22.2624 7.865 22.3414 7.889 22.4004 7.866C22.4394 7.851 22.4584 7.737 22.4774 7.402ZM12.8704 9.427C12.2914 8.63 11.9334 7.407 12.0104 6.493L12.0344 6.21L12.1664 6.234C12.4144 6.279 12.8414 6.438 13.0414 6.56C13.5894 6.893 13.8274 7.332 14.0684 8.458C14.1394 8.788 14.2324 9.161 14.2754 9.288C14.3434 9.491 14.6034 9.966 14.8154 10.275C14.9674 10.497 14.8654 10.602 14.5294 10.572C14.0154 10.525 13.3194 10.045 12.8704 9.427ZM21.7754 15.362C19.0684 14.272 18.1154 13.326 18.1154 11.73C18.1154 11.495 18.1234 11.303 18.1324 11.303C18.1424 11.303 18.2474 11.38 18.3654 11.475C18.9144 11.915 19.5294 12.103 21.2304 12.351C22.2314 12.498 22.7954 12.616 23.3154 12.788C24.9674 13.336 25.9894 14.448 26.2334 15.962C26.3034 16.402 26.2624 17.227 26.1474 17.662C26.0574 18.006 25.7804 18.625 25.7074 18.649C25.6874 18.655 25.6674 18.578 25.6614 18.471C25.6334 17.903 25.3464 17.349 24.8634 16.934C24.3144 16.463 23.5774 16.087 21.7744 15.362H21.7754ZM19.8754 15.814C19.8434 15.6208 19.7996 15.4298 19.7444 15.242L19.6744 15.036L19.8034 15.18C19.9804 15.38 20.1214 15.634 20.2394 15.974C20.3304 16.233 20.3404 16.31 20.3394 16.731C20.3394 17.145 20.3284 17.231 20.2444 17.465C20.1276 17.8081 19.932 18.1191 19.6734 18.373C19.1784 18.877 18.5434 19.155 17.6254 19.271C17.4654 19.291 17.0014 19.325 16.5924 19.346C15.5624 19.4 14.8854 19.51 14.2764 19.724C14.2215 19.7486 14.1625 19.7628 14.1024 19.766C14.0784 19.741 14.4924 19.494 14.8354 19.329C15.3184 19.096 15.7984 18.969 16.8754 18.79C17.4074 18.701 17.9574 18.594 18.0964 18.551C19.4144 18.147 20.0914 17.105 19.8744 15.814H19.8754Z" fill="white"/>
<path d="M20.466 18.351C20.106 17.578 20.024 16.831 20.221 16.135C20.242 16.061 20.276 16 20.296 16C20.3637 16.0245 20.4274 16.0589 20.485 16.102C20.651 16.214 20.983 16.402 21.868 16.884C22.973 17.487 23.603 17.954 24.032 18.486C24.407 18.953 24.639 19.485 24.751 20.133C24.814 20.5 24.777 21.383 24.683 21.753C24.386 22.919 23.695 23.835 22.711 24.369C22.6181 24.4227 22.5219 24.4705 22.423 24.512C22.409 24.512 22.461 24.379 22.54 24.215C22.87 23.523 22.909 22.849 22.658 22.099C22.505 21.64 22.192 21.079 21.561 20.133C20.827 19.033 20.647 18.739 20.466 18.351ZM10.299 22.522C11.304 21.674 12.553 21.072 13.692 20.887C14.182 20.807 15 20.839 15.454 20.955C16.182 21.141 16.834 21.559 17.173 22.056C17.503 22.542 17.646 22.966 17.793 23.908C17.853 24.28 17.916 24.653 17.935 24.738C18.045 25.226 18.262 25.617 18.53 25.813C18.955 26.124 19.688 26.143 20.408 25.863C20.4832 25.8285 20.5625 25.8036 20.644 25.789C20.67 25.815 20.308 26.058 20.052 26.186C19.7499 26.3477 19.4116 26.4296 19.069 26.424C18.409 26.424 17.861 26.089 17.404 25.404C17.314 25.269 17.112 24.866 16.954 24.507C16.472 23.407 16.234 23.071 15.674 22.704C15.185 22.384 14.556 22.327 14.083 22.559C13.461 22.864 13.288 23.659 13.733 24.162C13.91 24.362 14.24 24.535 14.51 24.568C14.6278 24.5836 14.7475 24.5737 14.8612 24.5391C14.9748 24.5044 15.0797 24.4458 15.1687 24.3671C15.2577 24.2884 15.3288 24.1915 15.3772 24.083C15.4255 23.9745 15.45 23.8568 15.449 23.738C15.449 23.406 15.321 23.218 15.001 23.073C14.564 22.876 14.094 23.106 14.096 23.517C14.097 23.692 14.173 23.802 14.349 23.882C14.462 23.932 14.464 23.937 14.372 23.918C13.971 23.834 13.877 23.351 14.2 23.03C14.587 22.644 15.388 22.814 15.663 23.34C15.779 23.561 15.792 24.002 15.691 24.268C15.466 24.863 14.808 25.175 14.141 25.005C13.687 24.889 13.502 24.764 12.955 24.2C12.004 23.22 11.635 23.03 10.263 22.816L10 22.775L10.3 22.522H10.299Z" fill="white"/>
<path fill-rule="evenodd" clip-rule="evenodd" d="M6 3.164L6.096 3.281C9.804 7.821 11.72 10.177 11.842 10.345C12.042 10.623 11.967 10.872 11.623 11.068C11.432 11.177 11.038 11.287 10.842 11.287C10.619 11.287 10.368 11.18 10.185 11.007C10.056 10.884 9.535 10.106 8.332 8.239C7.76865 7.3566 7.19797 6.4789 6.62 5.606C6.571 5.56 6.572 5.561 8.238 8.542C9.284 10.414 9.638 11.075 9.638 11.164C9.638 11.344 9.588 11.438 9.366 11.686C8.996 12.099 8.831 12.563 8.711 13.523C8.577 14.6 8.201 15.36 7.157 16.661C6.547 17.423 6.447 17.563 6.292 17.87C6.098 18.256 6.045 18.473 6.023 18.961C6 19.477 6.045 19.811 6.203 20.304C6.341 20.736 6.485 21.022 6.853 21.592C7.171 22.085 7.354 22.451 7.354 22.594C7.354 22.708 7.376 22.708 7.869 22.597C9.048 22.331 10.005 21.862 10.544 21.288C10.877 20.933 10.955 20.737 10.958 20.25C10.959 19.932 10.948 19.865 10.862 19.682C10.722 19.384 10.467 19.136 9.905 18.752C9.168 18.248 8.854 17.842 8.767 17.285C8.695 16.828 8.778 16.505 9.186 15.651C9.607 14.767 9.712 14.391 9.783 13.5C9.828 12.924 9.891 12.697 10.057 12.515C10.229 12.325 10.385 12.26 10.812 12.202C11.508 12.107 11.951 11.927 12.315 11.592C12.631 11.3 12.763 11.019 12.783 10.597L12.799 10.277L12.622 10.071C12.368 9.775 10.267 7.457 6.318 3.115L6.212 3L6 3.165V3.164ZM7.714 19.546C7.78377 19.4225 7.8046 19.2773 7.77238 19.1391C7.74015 19.0009 7.65722 18.8799 7.54 18.8C7.312 18.648 6.957 18.72 6.957 18.918C6.957 18.978 6.99 19.022 7.065 19.061C7.192 19.126 7.201 19.2 7.102 19.349C7.001 19.501 7.009 19.635 7.125 19.726C7.311 19.872 7.575 19.791 7.715 19.546H7.714ZM13.238 12.37C12.911 12.47 12.594 12.817 12.495 13.18C12.435 13.401 12.469 13.79 12.559 13.91C12.704 14.104 12.845 14.155 13.225 14.152C13.969 14.147 14.615 13.828 14.691 13.429C14.753 13.102 14.468 12.649 14.077 12.449C13.875 12.347 13.446 12.306 13.238 12.37ZM14.108 13.05C14.223 12.887 14.172 12.71 13.978 12.592C13.606 12.365 13.044 12.552 13.044 12.904C13.044 13.078 13.337 13.269 13.605 13.269C13.785 13.269 14.029 13.162 14.108 13.05Z" fill="white"/>
</svg>
