<svg width="119" height="108" viewBox="0 0 119 108" fill="none" xmlns="http://www.w3.org/2000/svg">
<g clip-path="url(#clip0_4670_38888)">
<g opacity="0.2">
<path d="M51.8723 108C79.5887 108 102.057 105.304 102.057 101.979C102.057 98.653 79.5887 95.957 51.8723 95.957C24.156 95.957 1.6875 98.653 1.6875 101.979C1.6875 105.304 24.156 108 51.8723 108Z" fill="#650000"/>
</g>
<path d="M64.946 58.7562C64.1382 58.0737 63.4441 57.2708 62.773 56.4946C61.568 55.1007 60.4297 53.7845 58.7687 53.2715C57.9383 53.0148 56.9432 52.8413 55.8902 52.6578C53.4933 52.2398 51.0146 51.8075 49.7464 50.3059C48.8751 49.2743 48.5711 48.2086 48.2767 47.1783C48.0233 46.2909 47.7798 45.4427 47.1945 44.6063C47.1288 46.5611 47.2986 51.4684 50.3809 54.1262C54.427 57.616 65.1677 61.7558 67.1574 61.5893C68.4203 61.4881 70.2489 60.0402 71.4456 58.965C70.2794 59.3969 69.0348 59.7691 67.8372 59.7691C66.8125 59.7691 65.8231 59.4967 64.946 58.7562Z" fill="#FF8F33"/>
<path d="M74.9647 53.4371C73.9164 53.0405 72.9262 52.6657 72.1828 52.2285C70.8245 51.43 70.2514 49.7816 69.5878 47.8726C69.0478 46.3197 68.4355 44.5593 67.2858 42.9431C65.5644 40.5242 61.8658 41.2511 58.8937 41.8352C57.6787 42.0745 56.6274 42.2789 55.8492 42.2462C53.2638 42.1324 50.2119 39.8381 49.83 39.5435C48.649 39.0379 47.6809 38.7838 46.9719 38.7838C46.421 38.7838 46.0265 38.9377 45.8109 39.2467C45.1817 40.148 46.0322 42.3107 47.1561 43.501C48.2566 44.666 48.5945 45.8498 48.9216 46.9944C49.209 48.0007 49.4803 48.9518 50.2585 49.8732C51.3694 51.1886 53.7258 51.5996 56.0047 51.9966C57.0794 52.184 58.095 52.361 58.9664 52.6299C60.8111 53.1996 62.0661 54.6514 63.2803 56.0553C63.9348 56.8119 64.6111 57.5947 65.3788 58.2432C67.3267 59.889 70.0071 58.8247 72.3718 57.8858L72.7781 57.725C73.7984 57.324 74.9307 57.3044 75.9297 57.2874C77.5266 57.26 78.5221 57.1928 78.8483 56.1987C79.2254 55.0506 76.9613 54.1938 74.9642 53.438L74.9647 53.4371Z" fill="#FF8F33"/>
<path d="M98.3818 57.2334C98.384 57.2308 98.3866 57.2281 98.3888 57.2255C102.727 52.7149 104.857 47.5078 104.721 41.7489C104.41 28.6202 92.3835 16.6229 91.3662 15.6322C90.1882 15.4043 89.002 15.1912 87.8144 15.0016C87.2017 14.9039 86.5881 14.8111 85.9728 14.7318C85.3574 14.6529 84.7408 14.5805 84.1202 14.5404C84.7417 14.5248 85.3648 14.5409 85.9867 14.5644C86.609 14.588 87.2309 14.6254 87.8519 14.6677C89.0669 14.751 90.2779 14.8569 91.4925 14.9807C91.708 14.9092 92.6931 14.4969 92.7946 12.872C92.8873 11.3866 89.6852 10.1126 88.4437 9.74695C88.3035 9.70555 88.2059 9.57871 88.2029 9.43227C88.1994 9.28626 88.2904 9.15463 88.4284 9.10669C88.4419 9.10189 89.8612 8.59369 90.3158 7.46222C90.5575 6.86075 90.4852 6.1721 90.1016 5.41503C88.9506 3.14381 82.9353 3.6786 80.7143 4.07653C80.5789 4.1005 80.4443 4.04079 80.3716 3.92572C80.2984 3.81066 80.3024 3.66247 80.3816 3.55133C80.9164 2.79861 81.0662 2.11476 80.7923 1.6763C80.3855 1.02383 79.0922 0.824642 77.2444 1.12974C73.7283 1.70986 70.3146 5.40108 69.8356 5.93674C69.8286 5.9703 69.8182 6.00255 69.8029 6.03088L68.962 7.57685L69.1375 6.04963C66.8086 5.57934 64.4191 5.3466 62.0339 5.3466C55.0314 5.3466 48.062 7.32362 42.7256 10.9865C37.6122 14.4964 34.4514 19.1918 33.5853 24.565C32.4156 31.8259 34.6047 40.0364 39.5923 47.0915C43.5195 52.6473 50.9745 60.0629 64.1865 63.8409C75.769 67.1529 84.4473 65.1816 89.6879 62.9439C95.3691 60.5184 98.3526 57.2661 98.3818 57.2334ZM79.4867 56.4074C78.9946 57.9055 77.5118 57.9307 75.9419 57.9578C74.9764 57.9743 73.9792 57.9939 73.0873 58.3278C72.6061 58.822 69.3518 62.087 67.2109 62.2587C67.1613 62.2627 67.1077 62.2648 67.0511 62.2648C64.3977 62.2648 53.8608 58.0149 49.9424 54.6353C46.0635 51.2901 46.4646 44.9267 46.5643 43.8432C45.433 42.5709 44.356 40.1567 45.2614 38.8605C45.9808 37.831 47.6208 37.8585 50.1353 38.942C50.1619 38.9538 50.1871 38.9686 50.2102 38.9865C50.2415 39.0113 53.3918 41.4647 55.8797 41.5737C56.5791 41.6051 57.5925 41.4054 58.7652 41.1749C61.76 40.5865 65.8618 39.7802 67.8337 42.5526C69.0391 44.2468 69.6679 46.0555 70.2227 47.6512C70.8428 49.4347 71.3785 50.975 72.5238 51.6484C73.218 52.0563 74.1821 52.4216 75.2029 52.8077C77.5932 53.7126 80.065 54.6483 79.4871 56.407L79.4867 56.4074Z" fill="#FFCC29"/>
<g opacity="0.4">
<path d="M46.2548 18.1528C47.1114 17.7762 47.6194 17.0461 47.3894 16.522C47.1595 15.9979 46.2786 15.8783 45.422 16.2548C44.5654 16.6313 44.0574 17.3614 44.2874 17.8855C44.5174 18.4096 45.3982 18.5293 46.2548 18.1528Z" fill="white"/>
</g>
<path d="M75.7812 57.6287C76.67 57.562 77.52 57.4953 77.8166 57.4282C78.4881 57.2765 79.2894 56.5613 79.1592 55.6508C79.0294 54.7403 72.2938 53.4397 71.0592 52.5079C69.8246 51.5756 69.0882 49.2564 68.5901 47.2624C68.0919 45.2684 67.3267 44.6063 67.3267 44.6063C68.7995 48.9587 65.7673 52.3636 64.237 52.4503C62.7063 52.5371 60.8873 51.0343 59.0103 50.6873C57.1334 50.3404 54.8519 50.4982 54.8519 50.4982C54.8519 50.4982 58.9237 51.179 60.4252 51.9304C61.9268 52.6818 63.8329 54.994 65.3344 57.0172C66.8359 59.0404 69.0016 58.7079 69.0016 58.7079L69.998 58.8595C69.998 58.8595 72.2546 58.2206 73.0398 57.9643C73.2741 57.7987 73.4762 57.6962 73.6364 57.6893C74.0344 57.671 74.8867 57.6618 75.7807 57.6296L75.7812 57.6287Z" fill="#DCA07E"/>
<path d="M49.1929 50.0222C49.1929 50.0222 52.2539 54.5886 57.3938 57.0451C62.5338 59.5015 65.3348 60.5132 66.6922 60.6287C68.0496 60.7442 69.6531 59.5286 69.6531 59.5286C69.6531 59.5286 66.7201 59.4641 65.9415 58.9816C65.1628 58.4991 63.2559 56.3517 62.9384 55.9759C62.6209 55.6002 61.4369 53.5191 59.5887 53.1002C57.7405 52.6813 53.4523 52.2045 51.8497 51.4244C50.2472 50.6442 49.1929 50.0227 49.1929 50.0227V50.0222Z" fill="#DCA07E"/>
<path d="M98.6296 46.3519C93.1596 55.8055 79.802 56.2941 79.802 56.2941L79.5199 56.2915C79.5199 56.2915 79.1523 56.9013 78.6467 57.277C78.3528 57.4958 77.0263 57.5847 75.7812 57.6291C74.6581 57.7137 73.4736 57.7982 73.2685 57.8837C73.225 57.902 73.1453 57.9294 73.0403 57.9639C71.8776 58.7859 69.9023 61.2083 68.1359 61.7854C66.0134 62.4788 57.4806 58.8591 57.4806 58.8591C57.4806 58.8591 51.0699 56.0631 48.673 52.3348C46.2761 48.6066 47.1841 44.0402 47.1841 44.0402C47.1841 44.0402 46.3053 42.8551 45.872 42.2771C45.4387 41.6992 45.261 38.8614 45.261 38.8614C36.449 34.2605 37.151 23.1738 35.8228 23.3468C33.4995 29.3123 36.2561 40.1851 36.9838 42.8185C37.7428 44.2768 38.6125 45.7069 39.5919 47.092C43.5191 52.6478 50.9741 60.0634 64.1861 63.8413C75.7686 67.1534 84.4469 65.182 89.6875 62.9443C95.3688 60.5188 98.3522 57.2665 98.3814 57.2338C98.3836 57.2312 98.3862 57.2286 98.3884 57.226C102.727 52.7153 104.857 47.5082 104.721 41.7493C104.591 36.2933 102.439 31.0335 99.8938 26.6772C99.9531 26.8227 104.06 36.9663 98.6292 46.3519H98.6296Z" fill="#FDB669"/>
<g opacity="0.25">
<path d="M75.7812 57.6287C74.8872 57.6609 74.0349 57.6701 73.6369 57.6884C73.4771 57.6958 73.275 57.7978 73.0403 57.9634C73.1457 57.929 73.2254 57.9015 73.2685 57.8832C73.4736 57.7978 74.6581 57.7128 75.7812 57.6287Z" fill="#020267"/>
</g>
<g opacity="0.25">
<path d="M75.7812 57.6287C74.8872 57.6609 74.0349 57.6701 73.6369 57.6884C73.4771 57.6958 73.275 57.7978 73.0403 57.9634C73.1457 57.929 73.2254 57.9015 73.2685 57.8832C73.4736 57.7978 74.6581 57.7128 75.7812 57.6287Z" fill="#020267"/>
</g>
<path d="M84.3789 10.63C83.5994 9.84981 89.7501 7.24865 89.0568 5.92933C88.364 4.61001 76.9718 11.7135 76.9718 11.7135C78.3144 15.702 85.7646 16.6125 89.403 17.9994C93.0415 19.3867 95.1327 19.8291 95.1327 19.8291C93.2253 17.4742 91.6998 15.9578 91.3653 15.6318C90.1873 15.4039 89.0011 15.1907 87.8135 15.0011C87.2008 14.9035 86.5872 14.8107 85.9719 14.7313C85.3566 14.6525 84.7399 14.5801 84.1194 14.54C84.7408 14.5243 85.364 14.5404 85.9858 14.564C86.6081 14.5875 87.23 14.625 87.851 14.6673C89.066 14.7505 90.2771 14.8564 91.4916 14.9802C91.5552 14.9593 91.6867 14.907 91.8417 14.8041C91.8104 14.5204 91.7229 14.0845 91.526 13.4042C90.9399 11.381 85.1575 11.4102 84.378 10.6295L84.3789 10.63Z" fill="#FDB669"/>
<g opacity="0.4">
<path d="M78.7046 2.26339C79.819 2.565 80.2832 3.11678 80.4635 3.4258C80.9273 2.72321 81.0505 2.09035 80.7923 1.6763C80.3855 1.02383 79.0922 0.824642 77.2444 1.12974C73.7283 1.70986 70.3146 5.40108 69.8356 5.93674C69.8286 5.9703 69.8181 6.00255 69.8029 6.03088L69.2224 7.09785C69.2224 7.09785 77.102 1.82928 78.7046 2.26295V2.26339Z" fill="white"/>
</g>
<g opacity="0.4">
<path d="M42.2522 13.0681C42.986 14.3269 45.7199 14.4951 48.5658 13.4103C51.5589 12.2697 53.5399 10.1758 52.9912 8.7336C52.9607 8.65296 52.9215 8.57713 52.8771 8.5039C60.6034 6.67464 67.7392 7.00501 69.019 7.0839L69.1379 6.04919C66.809 5.5789 64.4195 5.34616 62.0344 5.34616C55.0318 5.34616 48.0624 7.32318 42.726 10.9861C37.6126 14.496 34.4519 19.1914 33.5857 24.5646C33.5125 25.0183 33.4524 25.4759 33.4054 25.9366C33.4058 25.9349 35.6677 18.1249 42.2522 13.0681Z" fill="white"/>
</g>
<g opacity="0.4">
<path d="M80.4591 4.92949C81.3035 5.21149 87.9311 4.34415 89.2301 5.31958C90.0384 5.92629 90.2683 6.80148 90.3476 7.36547C90.5453 6.78709 90.4647 6.13244 90.1011 5.41503C88.9501 3.14381 82.9348 3.6786 80.7139 4.07653C80.5784 4.1005 80.4439 4.04079 80.3712 3.92573C80.3712 3.92573 79.6138 4.6475 80.4587 4.92949H80.4591Z" fill="white"/>
</g>
<g opacity="0.4">
<path d="M45.9067 41.483C45.9999 41.5371 46.5216 39.5239 47.4744 39.8059C48.4273 40.0879 51.1995 42.2336 53.8416 42.8838C56.4837 43.5341 58.2813 42.927 60.5772 42.3203C62.873 41.7136 66.7519 42.2501 67.7578 43.6618C68.7638 45.0731 68.5565 42.7008 66.7066 41.7192C64.8567 40.7381 65.0605 40.8462 63.9779 40.8031C62.8953 40.7599 58.3471 42.1468 56.4845 41.9738C54.622 41.8003 54.2322 41.8439 53.6909 41.5188C53.1496 41.1936 49.2294 38.7659 48.1899 38.6792C47.1504 38.5925 46.1109 38.5057 45.7425 38.9394C45.3745 39.3731 45.2491 41.1016 45.9071 41.4835L45.9067 41.483Z" fill="white"/>
</g>
<g opacity="0.4">
<path d="M61.119 43.4038C61.4582 43.2168 59.9928 46.6409 60.1662 48.0282C60.1662 48.0282 58.7509 44.7092 61.119 43.4038Z" fill="white"/>
</g>
<path d="M76.1901 66.5933C72.5499 66.5933 68.4481 66.089 63.9148 64.7923C50.4262 60.9351 42.804 53.3482 38.7849 47.663C33.6493 40.3978 31.3983 31.9213 32.6089 24.4072C33.5191 18.7604 36.8239 13.8374 42.166 10.1702C49.5208 5.12213 59.8792 3.18042 69.2877 5.06722C70.2258 4.05212 73.5206 0.740523 77.0833 0.15256C80.0241 -0.332543 81.1799 0.428017 81.631 1.15153C81.9467 1.65712 82.002 2.26121 81.8048 2.91498C84.328 2.6064 89.6334 2.30392 90.983 4.96697C91.5025 5.99209 91.5857 6.95707 91.2308 7.83618C90.9773 8.46337 90.5349 8.94019 90.0933 9.28713C91.6432 9.92827 93.8916 11.1678 93.7814 12.9335C93.6973 14.2824 93.1295 15.0465 92.6047 15.4688C93.7291 16.6155 96.1918 19.272 98.7054 22.9306C101.804 27.4395 105.534 34.3599 105.71 41.7227C105.853 47.7536 103.632 53.1983 99.1077 57.905C98.8996 58.1334 95.89 61.3644 90.109 63.8396C86.774 65.2674 82.0887 66.5928 76.1901 66.5928V66.5933ZM62.0305 5.66433C55.0928 5.66433 48.1891 7.62218 42.905 11.2489C37.8647 14.7087 34.7502 19.3305 33.8988 24.6156C32.7417 31.7949 34.9113 39.9201 39.851 46.9081C43.749 52.422 51.15 59.7827 64.2736 63.5353C75.7498 66.8173 84.3436 64.8734 89.5324 62.665C95.1601 60.2695 98.117 57.0525 98.1466 57.0202C98.151 57.0154 98.1558 57.0102 98.1601 57.0059C102.437 52.5593 104.538 47.4298 104.404 41.7598C104.086 28.2554 91.2086 15.9199 91.0783 15.7966C90.9037 15.6314 90.8336 15.3834 90.8963 15.1515C90.959 14.9192 91.1437 14.7401 91.3771 14.6851C91.4698 14.6594 92.383 14.3652 92.4776 12.8533C92.5437 11.792 90.0558 10.555 88.3535 10.0529C88.0814 9.97272 87.8915 9.72516 87.885 9.44098C87.878 9.15681 88.0557 8.90096 88.3239 8.80769C88.3348 8.80377 89.6238 8.33741 90.0214 7.34192C90.2292 6.82283 90.1621 6.23966 89.8172 5.55973C88.8739 3.69864 83.7671 3.85468 80.7688 4.39034C80.5083 4.43741 80.244 4.32104 80.102 4.09658C79.9601 3.87211 79.9675 3.58445 80.1212 3.36783C80.5715 2.73411 80.7209 2.16488 80.5214 1.84497C80.2662 1.43571 79.2851 1.11579 77.2945 1.44355C73.6378 2.04677 70.052 6.16905 70.0163 6.21046C69.8608 6.39133 69.6187 6.47284 69.3862 6.42359C66.9775 5.9132 64.5009 5.66477 62.0287 5.66477L62.0305 5.66433Z" fill="#650000"/>
<path d="M46.6689 30.5475C48.5005 33.0855 50.9671 35.2983 54.1156 35.8784C55.1451 36.095 56.2312 36.1826 57.3773 36.238C57.8307 36.2493 57.9478 36.8931 57.5276 37.0626C55.2409 38.0171 52.4351 37.9282 50.2198 36.7379C47.9662 35.5463 46.2525 33.3662 45.8275 30.8456C45.7692 30.3544 46.4028 30.1396 46.6689 30.5475Z" fill="#650000"/>
<path d="M76.2358 44.8953C78.627 46.8845 81.3013 48.6101 84.3667 49.1858C85.8582 49.4661 87.2678 49.4652 88.856 49.3763C89.2319 49.3423 89.5646 49.6282 89.5829 50.0061C89.5968 50.2724 89.4518 50.5104 89.2314 50.6285C88.6409 50.944 88.0086 51.1995 87.3454 51.3594C85.3413 51.8807 83.153 51.6445 81.2573 50.8246C78.7716 49.7389 76.6787 47.843 75.5155 45.3987C75.3217 44.9537 75.887 44.5614 76.2358 44.8953Z" fill="#650000"/>
<path d="M67.8311 60.0917C66.7454 60.0917 65.689 59.7992 64.7409 58.9986C63.9139 58.2999 63.2115 57.4875 62.5322 56.7016C61.3577 55.3435 60.2481 54.0604 58.6747 53.5744C57.8634 53.3238 56.8783 53.1521 55.8353 52.9703C53.3827 52.5427 50.846 52.1004 49.5034 50.5104C48.5881 49.4264 48.2745 48.3276 47.9705 47.2646C47.6627 46.1867 47.3722 45.1686 46.4376 44.1788C45.1656 42.8315 43.958 40.1707 45.0006 38.6779C45.8175 37.5076 47.5869 37.4976 50.2607 38.6496C50.3126 38.6718 50.3613 38.701 50.4057 38.7359C50.4362 38.7598 53.509 41.1509 55.8932 41.2559C56.5534 41.2834 57.5986 41.0799 58.7038 40.8628C61.7836 40.2574 66.0012 39.4289 68.0919 42.3682C69.3235 44.0994 69.9606 45.9309 70.5224 47.5466C71.1468 49.3419 71.6398 50.7601 72.6845 51.3742C73.3556 51.7687 74.3076 52.1291 75.3153 52.5105C77.7274 53.4236 80.4613 54.4583 79.789 56.5059C79.2263 58.2188 77.4844 58.2489 75.9476 58.2751C74.9878 58.2916 73.9953 58.3086 73.1409 58.6442L72.7377 58.8038C71.2287 59.403 69.4964 60.0904 67.8315 60.0908L67.8311 60.0917ZM46.9659 39.0989C46.5326 39.0989 46.2251 39.2074 46.0714 39.428C45.5911 40.1153 46.2678 42.0963 47.387 43.2818C48.5406 44.5035 48.9051 45.7801 49.2269 46.9063C49.5047 47.8791 49.7669 48.7979 50.5011 49.667C51.5376 50.8944 53.8365 51.2949 56.0592 51.6828C57.1444 51.872 58.1691 52.0507 59.0601 52.3257C60.9914 52.9219 62.277 54.4091 63.5203 55.8465C64.1665 56.594 64.835 57.3672 65.584 57.9996C67.386 59.5225 69.9732 58.4956 72.2551 57.5895L72.6628 57.4282C73.7362 57.0063 74.8989 56.9862 75.9245 56.9688C77.5941 56.9405 78.2992 56.8538 78.547 56.0989C78.8292 55.2398 76.6239 54.4051 74.8519 53.7344C73.7906 53.3325 72.7882 52.9533 72.0217 52.5026C70.5629 51.6449 69.9719 49.9451 69.2878 47.9772C68.7547 46.4443 68.1503 44.7066 67.0272 43.1275C65.4251 40.8754 61.8376 41.5802 58.9551 42.1468C57.7201 42.3896 56.6549 42.6001 55.8353 42.5631C53.2198 42.448 50.1806 40.2099 49.6689 39.8194C48.5467 39.3426 47.6152 39.0989 46.9659 39.0989Z" fill="#650000"/>
<path d="M67.0607 62.5821C64.2958 62.5821 53.7894 58.3727 49.735 54.8759C45.4503 51.1807 46.2285 43.9613 46.2638 43.6557C46.3052 43.297 46.6327 43.0412 46.9876 43.0813C47.346 43.1227 47.6029 43.447 47.5616 43.8052C47.5537 43.875 46.8313 50.6459 50.5877 53.8856C54.5162 57.2735 64.7844 61.2768 67.0141 61.2768C67.0563 61.2768 67.0955 61.2755 67.1321 61.2724C68.7055 61.1464 71.4899 58.5675 72.4301 57.5847C72.6792 57.3236 73.0929 57.3149 73.3538 57.5646C73.6146 57.8144 73.6234 58.228 73.3738 58.4891C72.9928 58.8879 69.5821 62.3882 67.2366 62.576C67.1822 62.5804 67.1234 62.5826 67.0611 62.5826L67.0607 62.5821Z" fill="#650000"/>
<path d="M70.1056 6.12678L68.962 7.57686L68.8601 5.73233C68.8388 5.34704 69.1336 5.0171 69.519 4.99574C70.1095 4.94998 70.4788 5.67654 70.106 6.12678H70.1056Z" fill="#650000"/>
<path d="M91.4289 15.9674C89.0168 15.4056 86.5842 14.8394 84.1202 14.5409C86.6225 14.4053 89.1222 14.54 91.6253 14.6747C92.5642 14.7719 92.3574 16.1531 91.4294 15.9674H91.4289Z" fill="#650000"/>
<path d="M67.2552 95.2779C66.801 95.2779 66.3403 95.2697 65.877 95.2579C65.2551 95.7774 61.4246 99.1143 62.2102 101.818C62.6679 103.393 65.1976 102.838 67.6428 102.303C69.5624 101.882 71.2194 101.519 72.1174 102.091C72.2755 102.191 72.4379 102.297 72.6043 102.405C74.432 103.594 76.504 104.942 78.4354 103.493C79.45 102.731 80.0096 101.983 80.459 101.382C81.04 100.604 81.4985 99.9912 82.5162 99.8452C82.7113 99.8173 82.9522 99.7894 83.2248 99.7581C85.0965 99.541 88.5808 99.1374 88.4096 97.3783C88.2389 95.6288 85.0512 92.6467 83.618 91.4577C79.4849 93.9948 73.8955 95.2784 67.2557 95.2784L67.2552 95.2779Z" fill="#FF8F33"/>
<path d="M28.3821 88.5218C28.3368 88.5619 28.2819 88.5889 28.2223 88.6003C28.1138 88.6207 17.3344 90.6941 14.0217 92.8855C10.9494 94.9179 10.7813 95.6942 10.8518 95.9335C10.8919 96.0703 11.1972 96.5197 13.436 96.5467L13.7334 96.5502C18.6643 96.609 20.5095 96.6313 20.5826 98.0207C20.5914 98.1864 20.594 98.4152 20.5966 98.6845C20.607 99.7371 20.6288 101.927 21.2646 102.534C21.3696 102.634 21.4876 102.68 21.6213 102.674C22.1656 102.654 23.2774 102.318 24.4545 101.962C26.6707 101.292 28.9626 100.599 29.9803 101.088C33.3187 102.693 35.8079 103.315 36.8091 102.796C37.0865 102.653 37.2428 102.427 37.3008 102.086C37.6187 100.217 36.9541 96.6696 36.557 94.5501C36.3597 93.4957 36.2565 92.9331 36.2565 92.6628C36.2565 91.8548 37.8608 89.9963 38.7056 89.0736C36.2007 87.9308 33.9793 86.6642 32.0449 85.2756L28.383 88.5214L28.3821 88.5218Z" fill="#FF8F33"/>
<path d="M96.608 36.8517C94.2839 35.4129 92.1052 34.1895 89.9983 33.0061C84.8705 30.1269 80.0271 27.4068 74.1111 22.1643C71.6889 20.0178 70.494 19.9964 69.998 20.1734C69.4062 20.3852 69.178 21.0795 69.09 21.6248C68.6323 24.4757 70.6908 29.9565 73.9334 32.4862C74.0623 32.5864 74.1002 32.7651 74.0231 32.9094C74.004 32.9464 73.5358 33.8874 74.061 35.4652C74.7182 37.4401 76.9922 40.5206 84.0962 43.9804C84.2521 44.0563 84.3244 44.238 84.2635 44.4006C84.2068 44.5579 82.9435 48.3368 90.3315 51.8698C97.489 55.2921 98.7449 56.706 98.944 56.9971C99.1761 57.236 99.3664 57.4692 99.5589 57.7163C99.7622 57.9761 99.9504 58.245 100.132 58.5169C100.495 59.0618 100.82 59.6266 101.12 60.2024C101.415 60.7808 101.686 61.3696 101.926 61.9698C102.052 62.267 102.154 62.5738 102.27 62.8746C102.376 63.1788 102.474 63.4865 102.575 63.7916C102.447 63.4961 102.324 63.1993 102.192 62.9064C102.052 62.6174 101.924 62.3228 101.773 62.0395C101.485 61.4672 101.167 60.9106 100.829 60.3697C100.486 59.8319 100.121 59.3093 99.7257 58.8151C99.5275 58.5684 99.3246 58.326 99.1103 58.0968C98.9758 57.9512 98.8338 57.8052 98.6918 57.6696C97.8914 58.469 95.0468 61.0806 90.125 63.201C84.8209 65.4858 76.0176 67.5752 64.2017 64.5509C42.9934 59.1228 37.2607 45.3856 34.5058 38.7838C34.3107 38.3161 34.1309 37.8855 33.9619 37.4976C32.8902 36.8887 23.7991 31.5011 18.7919 21.3693C16.5096 16.7506 15.0877 12.5717 13.945 9.21389C12.5262 5.04498 11.5904 2.30042 10.2199 2.43597C9.6551 2.49612 9.11946 2.84262 8.62737 3.4672C7.05876 5.45816 6.25138 9.84283 6.74783 13.6687C6.74827 13.6727 6.74957 13.6761 6.75001 13.6801C6.75001 13.6831 6.75044 13.6862 6.75044 13.6896L6.75131 13.7062C6.79051 14.5282 6.91897 15.3864 7.0788 16.2193C7.24167 17.0562 7.45287 17.8852 7.70284 18.7024C8.20234 20.3373 8.86862 21.9242 9.69299 23.4279C10.513 24.9346 11.502 26.3489 12.6186 27.6574C13.7478 28.9549 15.0089 30.1409 16.3785 31.1913C14.9758 30.1862 13.672 29.0386 12.4931 27.7689C11.3269 26.4893 10.2809 25.0933 9.40122 23.5939C8.51675 22.0977 7.78689 20.5077 7.22381 18.8575C6.94205 18.0325 6.69906 17.1935 6.5044 16.3414C6.32149 15.5241 6.17038 14.7126 6.09374 13.8575C4.6266 12.0683 2.71484 10.3192 2.15786 10.5236C1.41362 10.8636 0.258291 18.7372 2.62165 26.2343C2.62557 26.2474 2.62905 26.2605 2.63166 26.2735L2.7536 26.9256C3.43121 28.4158 4.29433 29.8676 5.23758 31.2379C5.48232 31.5792 5.71922 31.927 5.97093 32.2634L6.7413 33.2629C7.28129 33.9079 7.81694 34.5582 8.40179 35.1649L8.83161 35.6282C8.97793 35.7799 9.13209 35.9229 9.28233 36.071C9.5863 36.3626 9.88329 36.6625 10.1929 36.9484C10.8335 37.4958 11.451 38.0738 12.1343 38.5706C13.4521 39.6306 14.9048 40.5041 16.3785 41.3353C14.8791 40.5538 13.3924 39.7257 12.0337 38.7049C11.33 38.2281 10.6902 37.668 10.0261 37.1371C9.70431 36.8599 9.39556 36.5679 9.0794 36.2833C8.92306 36.139 8.76237 35.9996 8.60995 35.8514L8.16053 35.3985C7.54955 34.8053 6.98691 34.1664 6.41861 33.5313L5.60513 32.5454C5.33861 32.2129 5.08691 31.8686 4.82736 31.5303C3.83141 30.177 2.92605 28.7727 2.16439 27.2433C2.09776 27.1919 1.94709 27.0908 1.79859 27.0908C1.76114 27.0908 1.72412 27.0973 1.68841 27.1126C1.53643 27.1775 1.03693 27.5763 0.991206 29.9831C0.903239 34.6 4.49422 41.8644 9.3433 46.8815C13.4268 51.1066 18.8681 53.842 25.9691 55.2454C26.5513 54.6296 27.1593 54.0721 27.7981 53.5369C28.4892 52.962 29.2139 52.429 29.9655 51.9404C30.7132 51.4457 31.5049 51.0199 32.3145 50.6424C33.1227 50.2589 33.9745 49.9804 34.8311 49.745C33.9898 50.0344 33.1645 50.363 32.3894 50.7928C31.6129 51.2164 30.8613 51.6841 30.1571 52.2167C29.449 52.7432 28.7723 53.3098 28.1326 53.9139C27.5029 54.5115 26.8923 55.15 26.3558 55.8081C26.0714 56.2854 20.6915 65.5424 24.3987 74.9385C25.8432 78.5988 28.4465 81.8053 32.1795 84.5442C32.2078 84.5586 32.2339 84.5782 32.2583 84.6013C34.3003 86.0893 36.6771 87.4387 39.3863 88.6456C39.388 88.646 39.3893 88.6469 39.3906 88.6478C42.0806 89.8455 45.0946 90.9046 48.4343 91.8199C64.8737 96.2813 78.3666 95.3642 85.4532 89.3028C89.7549 85.6243 91.556 80.262 90.807 73.3655C90.807 73.3629 90.807 73.3599 90.807 73.3572L90.3611 68.7342L91.3975 72.9706C93.7979 72.7527 110.866 70.8881 112.032 62.0142C113.265 52.6356 105.006 42.0505 96.6089 36.8525L96.608 36.8517Z" fill="#FFCC29"/>
<g opacity="0.4">
<path d="M2.74963 10.6779C2.74963 10.6779 4.55296 13.1562 4.87783 14.1316C5.2027 15.107 6.58361 23.0517 11.2929 26.3555C11.2929 26.3555 7.54167 20.4105 6.87756 16.6822C6.21345 12.9539 5.83807 12.8672 5.0873 12.2605C4.33653 11.6534 2.74963 10.6784 2.74963 10.6784V10.6779Z" fill="white"/>
</g>
<g opacity="0.4">
<path d="M1.7977 27.0908C1.7977 27.0908 1.56428 29.0809 5.20272 33.4446C8.84117 37.8088 12.8506 39.2863 12.8506 39.2863C12.8506 39.2863 8.29246 36.0745 5.49145 32.2308C2.69043 28.387 2.42914 26.4915 2.32898 26.4854C2.22839 26.4793 1.79813 27.0903 1.79813 27.0903L1.7977 27.0908Z" fill="white"/>
</g>
<g opacity="0.4">
<path d="M95.8612 39.0876C96.47 39.2201 90.3602 36.0893 88.0213 36.523C85.6823 36.9567 93.0637 38.4782 95.8612 39.0876Z" fill="white"/>
</g>
<g opacity="0.4">
<path d="M33.0073 56.2139C32.9803 55.4503 32.0902 55.2249 31.7989 55.9066C30.7319 58.4049 28.7335 64.1189 30.1344 69.265C31.9922 76.0883 38.8942 77.6621 38.8454 75.1194C38.7966 72.5762 33.3683 69.4097 32.5135 65.8357C31.5389 61.7605 33.0927 58.6259 33.0069 56.2139H33.0073Z" fill="white"/>
</g>
<g opacity="0.4">
<path d="M14.6854 19.9314C14.9501 19.8325 15.0421 19.4233 14.8908 19.0173C14.7395 18.6114 14.4021 18.3624 14.1374 18.4613C13.8726 18.5602 13.7806 18.9694 13.932 19.3754C14.0833 19.7813 14.4206 20.0303 14.6854 19.9314Z" fill="white"/>
</g>
<g opacity="0.4">
<path d="M43.956 79.1345C44.2922 78.3739 43.7548 77.3988 42.7557 76.9566C41.7567 76.5143 40.6744 76.7724 40.3382 77.533C40.0021 78.2936 40.5395 79.2687 41.5385 79.7109C42.5376 80.1532 43.6199 79.8951 43.956 79.1345Z" fill="white"/>
</g>
<g opacity="0.4">
<path d="M22.9621 98.4435C22.8955 98.6257 22.9908 96.4495 23.7995 95.38C24.6082 94.3108 27.8713 91.8831 27.9288 92.2588C27.9867 92.6345 24.2037 95.0622 22.9621 98.4435Z" fill="white"/>
</g>
<path d="M16.176 49.456C16.0606 48.9936 18.2263 49.2538 17.3309 48.8201C14.4432 48.1554 9.30325 44.2537 5.5494 38.2712C1.79556 32.2887 1.68756 27.1125 1.68756 27.1125C1.53557 27.1775 1.03608 27.5763 0.990351 29.9831C0.902384 34.6 4.49336 41.8644 9.34244 46.8815C13.4259 51.1066 18.8673 53.842 25.9682 55.2454C26.5505 54.6296 27.1584 54.0721 27.7973 53.5369C27.9092 53.4436 28.0237 53.3534 28.1374 53.2623C22.9917 53.0688 16.2888 49.908 16.176 49.456Z" fill="#FDB669"/>
<path d="M19.4103 42.5487C15.1221 40.0342 9.70779 34.3551 6.11246 26.5952C2.51713 18.8353 2.42611 10.5345 2.42611 10.5345C2.31768 10.5027 2.22666 10.4979 2.15698 10.5232C1.41275 10.8632 0.257415 18.7368 2.62077 26.2339C2.62469 26.247 2.62817 26.26 2.63079 26.2731L2.75272 26.9251C3.43033 28.4153 4.29345 29.8671 5.23671 31.2375C5.48145 31.5787 5.71835 31.9265 5.97006 32.263L6.74042 33.2624C7.28042 33.9075 7.81606 34.5578 8.40091 35.1645L8.83073 35.6278C8.97705 35.7795 9.13121 35.9224 9.28145 36.0706C9.58542 36.3622 9.88242 36.6621 10.192 36.948C10.8326 37.4954 11.4501 38.0733 12.1334 38.5702C13.4237 39.608 14.8434 40.4666 16.2857 41.2825C18.0516 42.1568 19.8854 42.9056 19.4094 42.5487H19.4103Z" fill="#FDB669"/>
<g opacity="0.25">
<path d="M16.1407 41.2102C15.4631 40.8541 14.789 40.4875 14.1296 40.0957C14.1314 40.0966 14.1327 40.0979 14.1344 40.0987C14.6531 40.4357 15.3851 40.8318 16.1411 41.2102H16.1407Z" fill="#020267"/>
</g>
<path d="M20.6663 32.7512C15.1222 29.1964 12.7397 24.9045 10.1973 15.3237C7.65498 5.74277 10.1973 2.66479 10.1973 2.66479C10.176 2.57327 10.1111 2.50397 10.0105 2.47084C9.52233 2.58547 9.0581 2.91977 8.62698 3.46632C7.05838 5.45729 6.25099 9.84196 6.74744 13.6679C6.74788 13.6718 6.74918 13.6753 6.74962 13.6792C6.74962 13.6822 6.75005 13.6853 6.75005 13.6888L6.75093 13.7053C6.79012 14.5274 6.91859 15.3855 7.07841 16.2185C7.24128 17.0553 7.45249 17.8843 7.70245 18.7015C8.20195 20.3364 8.86824 21.9233 9.6926 23.427C10.3885 24.7058 11.2072 25.917 12.1213 27.0546C13.4016 28.5413 14.7516 29.8632 15.7227 30.6687C15.7589 30.6983 15.7946 30.7288 15.8311 30.7585C17.6528 32.2303 20.925 33.0964 20.6663 32.7512Z" fill="#FDB669"/>
<path d="M102.575 67.5112C104.485 66.2494 107.21 61.6232 104.698 57.8518C102.185 54.08 88.2377 48.5747 87.9782 46.7537C87.7182 44.9328 92.5695 46.3637 94.0423 46.4935C95.5151 46.6234 88.1946 43.1554 84.0798 41.1178C79.9649 39.0802 76.846 35.742 76.6296 34.3115C76.4131 32.881 80.2249 34.7016 82.087 34.7883C83.9496 34.8751 75.9363 31.0601 73.3373 28.8926C70.7384 26.7251 70.2175 20.1202 70.2175 20.1198C70.1326 20.132 70.0599 20.1511 69.9976 20.1729C69.4058 20.3847 69.1776 21.0791 69.0896 21.6243C68.6319 24.4752 70.6905 29.956 73.9331 32.4857C74.062 32.586 74.0998 32.7647 74.0228 32.9089C74.0036 32.946 73.5355 33.887 74.0607 35.4648C74.7178 37.4396 76.9919 40.5202 84.0959 43.98C84.2518 44.0558 84.3241 44.2376 84.2631 44.4002C84.2065 44.5575 82.9432 48.3363 90.3311 51.8693C97.4887 55.2916 98.7446 56.7055 98.9436 56.9967C99.1757 57.2355 99.366 57.4687 99.5585 57.7158C99.7619 57.9756 99.95 58.2445 100.132 58.5165C100.495 59.0613 100.819 59.6262 101.12 60.2019C101.415 60.7803 101.685 61.3691 101.925 61.9693C102.052 62.2666 102.154 62.5734 102.269 62.8741C102.376 63.1784 102.473 63.4861 102.575 63.7912C102.447 63.4957 102.323 63.1989 102.192 62.906C102.051 62.617 101.924 62.3224 101.773 62.0391C101.484 61.4668 101.166 60.9102 100.828 60.3693C100.485 59.8315 100.121 59.3089 99.7253 58.8146C99.5272 58.5679 99.3242 58.3256 99.11 58.0963C98.9754 57.9508 98.8334 57.8048 98.6915 57.6692C97.8911 58.4686 95.0465 61.0802 90.1247 63.2006C84.8205 65.4853 76.0173 67.5748 64.2014 64.5504C42.9651 59.1149 37.2451 45.349 34.4946 38.7572C34.4097 38.7772 34.5211 38.7511 34.4362 38.7711C34.4924 41.8243 35.7749 52.6229 50.2507 62.4043C58.9525 68.2844 67.5345 70.6149 76.4362 70.5198C79.6553 70.4854 82.178 73.2783 81.7617 76.4736C81.1228 81.3756 78.3314 87.3895 68.1834 88.762C52.1568 90.9295 28.5067 79.7446 26.9477 69.1203C25.4152 58.6786 33.0113 50.6306 33.2731 50.3569C32.973 50.4916 32.6769 50.6337 32.389 50.7932C31.6126 51.2169 30.8609 51.6845 30.1568 52.2171C29.4487 52.7437 28.7719 53.3103 28.1322 53.9143C27.5025 54.5119 26.892 55.1504 26.3554 55.8086C26.0711 56.2858 20.6911 65.5429 24.3984 74.9389C25.8429 78.5992 28.4462 81.8058 32.1791 84.5447C32.2074 84.559 32.2336 84.5787 32.258 84.6018C34.2999 86.0898 36.6768 87.4391 39.3859 88.646C39.3876 88.6465 39.389 88.6473 39.3903 88.6482C42.0802 89.8459 45.0942 90.905 48.4339 91.8203C64.8733 96.2817 78.3663 95.3647 85.4528 89.3033C89.7545 85.6247 91.5557 80.2624 90.8066 73.366C90.8066 73.3633 90.8066 73.3603 90.8066 73.3577L90.3607 68.7346L91.1045 71.7738C95.9009 71.0773 100.912 69.0423 102.569 67.5168C102.571 67.5151 102.573 67.5142 102.576 67.5129L102.575 67.5112Z" fill="#FDB669"/>
<path d="M31.2302 85.9978C31.2302 85.9978 34.171 88.2141 35.7108 88.901C35.4818 89.1067 35.2379 89.3325 34.9992 89.5644C34.0878 89.1634 31.6813 88.1701 31.8633 88.48C32.0445 88.7881 33.7686 89.7622 34.3674 90.2129C34.1905 90.4069 34.0303 90.5965 33.8979 90.7747C33.2194 90.4666 31.0133 89.4802 31.1052 89.737C31.1814 89.9505 32.6289 91.011 33.5186 91.5758C33.4772 93.0032 36.2377 100.607 35.2418 100.683C33.8818 100.787 31.1487 95.0038 30.0657 96.6945C28.9831 98.3851 24.5978 100.783 24.5978 100.783C23.2177 101.272 22.2841 101.567 22.2113 100.957C22.0672 99.7432 22.298 96.6509 20.9119 96.0437C19.5257 95.4366 10.9842 96.1026 10.9838 96.1026C10.9838 96.1026 11.1336 96.1815 11.3256 96.2826C11.6875 96.4146 12.3224 96.5328 13.4368 96.5458L13.7343 96.5493C18.6652 96.6082 20.5103 96.6304 20.5835 98.0199C20.5922 98.1855 20.5948 98.4143 20.5974 98.6837C20.6079 99.7363 20.6297 101.926 21.2655 102.533C21.3704 102.633 21.4884 102.679 21.6221 102.673C22.1665 102.653 23.2783 102.317 24.4554 101.961C26.6715 101.291 28.9635 100.598 29.9812 101.087C33.3196 102.692 35.8088 103.314 36.81 102.795C37.0874 102.652 37.2437 102.426 37.3016 102.085C37.6195 100.216 36.955 96.6687 36.5578 94.5492C36.3606 93.4949 36.2573 92.9322 36.2573 92.662C36.2573 91.8539 37.8617 89.9954 38.7065 89.0727C36.2016 87.9299 33.9802 86.6633 32.0458 85.2747L31.2315 85.9965L31.2302 85.9978Z" fill="#DCA07E"/>
<path d="M79.2715 96.0158C78.5208 95.8136 77.7961 101.643 76.788 101.941C75.5173 102.316 73.2937 99.8021 72.0748 98.5346C71.1163 97.5383 65.2739 101.141 64.5153 100.698C63.4758 100.091 65.5839 97.4324 66.4501 96.8544C67.3163 96.2765 68.5583 96.8257 75.8926 95.4959C83.2275 94.1665 84.0627 91.8365 84.0627 91.8365C83.9016 91.6961 83.7518 91.5689 83.6172 91.4573C79.4841 93.9944 73.8947 95.2779 67.2549 95.2779C66.8007 95.2779 66.3399 95.2697 65.8766 95.2579C65.2547 95.7774 61.4242 99.1143 62.2098 101.818C62.6675 103.393 65.1972 102.838 67.6425 102.303C69.5621 101.882 71.2191 101.519 72.117 102.091C72.2751 102.191 72.4375 102.297 72.6039 102.405C74.4316 103.594 76.5036 104.943 78.435 103.493C79.4497 102.731 80.0093 101.983 80.4587 101.382C81.0396 100.604 81.4982 99.9912 82.5159 99.8452C82.711 99.8173 82.9518 99.7894 83.2244 99.7581C85.0961 99.541 88.5804 99.1374 88.4092 97.3783C88.3566 96.8396 88.0177 96.1841 87.5326 95.5002C87.4442 95.9248 87.2474 96.6055 86.8089 97.4324C86.0581 98.8484 80.0228 96.2185 79.272 96.0163L79.2715 96.0158Z" fill="#DCA07E"/>
<g opacity="0.4">
<path d="M73.4671 23.4305C75.5029 25.3596 78.9249 28.156 84.989 31.4937C91.0531 34.8319 99.825 39.081 105.217 45.9732C108.957 50.754 110.925 54.6784 111.781 56.6354C110.151 48.8424 103.425 41.0716 96.6077 36.8517C94.2835 35.4129 92.1048 34.1895 89.9979 33.0061C84.8701 30.1269 80.0267 27.4068 74.1107 22.1643C73.0847 21.2552 72.2813 20.73 71.6555 20.4366C71.557 20.417 71.1028 20.23 71.0244 20.1978C71.0205 20.1965 71.0166 20.1956 71.0127 20.1947C71.0201 20.217 71.4486 21.5175 73.4671 23.4301V23.4305Z" fill="white"/>
</g>
<g opacity="0.4">
<path d="M12.605 14.4872C13.1646 15.9892 14.2093 16.9964 14.9919 16.8243C15.2484 17.4223 15.5214 18.0346 15.8145 18.6618C19.9816 27.5759 25.8058 33.2873 31.5062 35.908C28.1948 33.5627 22.4208 28.713 18.791 21.3685C16.5087 16.7498 15.0868 12.5708 13.9441 9.21301C12.9247 6.21654 12.1543 3.95621 11.2925 2.97206C11.2925 2.97206 11.346 6.04743 12.9029 11.1451C12.1782 11.5086 12.0389 12.9692 12.6046 14.4872H12.605Z" fill="white"/>
</g>
<g opacity="0.4">
<path d="M28.6795 89.5997C29.257 89.1952 31.1879 86.3543 31.002 86.1996L28.3821 88.5218C28.3368 88.5619 28.2819 88.5889 28.2223 88.6003C28.1138 88.6207 17.3344 90.6941 14.0217 92.8855C10.9494 94.9179 10.7813 95.6942 10.8518 95.9335C10.8627 95.9714 10.8962 96.0333 10.9829 96.1034C10.9829 96.1034 14.0966 93.9638 16.8684 93.039C19.6407 92.1141 28.1017 90.0046 28.6791 89.5997H28.6795Z" fill="white"/>
</g>
<path d="M7.06835 13.6927C7.36578 18.7616 9.4452 23.6972 12.6773 27.6038C13.783 28.9148 15.0242 30.1191 16.3781 31.1904C14.9597 30.2067 13.6358 29.0769 12.4335 27.8213C10.0331 25.2824 8.17447 22.2315 6.9965 18.9308C6.54969 17.6855 6.19303 16.4028 5.95265 15.0979C5.87295 14.6542 5.80502 14.231 5.76234 13.7467C5.73055 13.3867 5.99663 13.0694 6.35634 13.0376C6.73738 13.0019 7.07053 13.31 7.06748 13.6927H7.06835Z" fill="#650000"/>
<path d="M3.02879 26.7661C4.36963 29.7939 6.29794 32.5982 8.51541 35.0546C10.7669 37.5708 13.4359 39.6742 16.378 41.3353C14.0861 40.2282 11.9139 38.8535 9.94684 37.2265C8.32119 35.8645 6.78438 34.3194 5.43177 32.6793C4.34394 31.3447 3.33667 29.9425 2.46615 28.4541C2.24318 28.078 2.03981 27.7071 1.83209 27.2921C1.67052 26.9687 1.80117 26.576 2.12429 26.4143C2.46745 26.24 2.89205 26.4069 3.02835 26.7665L3.02879 26.7661Z" fill="#650000"/>
<path d="M99.1094 56.7121C100.853 58.724 101.868 61.2571 102.575 63.7912C102.298 63.2093 102.019 62.6301 101.701 62.0717C100.774 60.4552 99.6843 58.88 98.2437 57.6914C97.4585 57.1009 98.4227 56.0047 99.1094 56.7121Z" fill="#650000"/>
<path d="M90.4956 73.4379L90.3597 68.7333L91.7833 73.2191C91.8935 73.5664 91.7015 73.9378 91.3544 74.0481C90.945 74.1854 90.5021 73.8681 90.4952 73.4379H90.4956Z" fill="#650000"/>
<path d="M25.5789 55.1936C28.1391 52.6465 31.2924 50.5705 34.8303 49.745C33.1632 50.3495 31.6264 51.2469 30.246 52.3475C28.8894 53.4262 27.6235 54.6727 26.5731 56.0426C26 56.7557 24.964 55.8761 25.5785 55.1936H25.5789Z" fill="#650000"/>
<path d="M35.8798 103.961C34.4131 103.961 32.2949 103.298 29.5523 101.981C28.8808 101.658 26.2892 102.442 24.7406 102.91C23.4468 103.301 22.3298 103.638 21.6579 103.663C21.2533 103.679 20.8801 103.536 20.5818 103.251C19.7165 102.424 19.6259 100.547 19.6076 98.6946C19.605 98.4426 19.6033 98.2282 19.595 98.073C19.5706 97.6102 16.5972 97.5744 13.7217 97.54L13.4242 97.5365C11.9606 97.5186 10.2378 97.3526 9.90294 96.2128C9.59026 95.1489 10.6254 93.946 13.4761 92.06C16.7517 89.893 26.3794 87.9517 27.8596 87.6623L31.5925 84.3533C31.8629 84.114 32.2758 84.1393 32.5149 84.4095C32.7539 84.6798 32.7291 85.093 32.4591 85.3322L28.5925 88.7598C28.5045 88.8378 28.3969 88.8905 28.2815 88.9123C28.1735 88.9328 17.4559 90.9944 14.1968 93.1505C11.3844 95.0112 11.1745 95.7247 11.1597 95.8393C11.2229 95.9012 11.6266 96.2072 13.4399 96.229L13.7373 96.2324C16.028 96.2599 17.6828 96.2795 18.7741 96.4321C19.3368 96.511 20.8322 96.7197 20.8997 98.0042C20.9084 98.1733 20.911 98.4065 20.9141 98.6811C20.9232 99.6112 20.945 101.79 21.4837 102.304C21.5325 102.35 21.5634 102.358 21.6095 102.356C22.1134 102.337 23.257 101.991 24.3631 101.657C27.1576 100.812 29.0685 100.297 30.1175 100.801C34.8595 103.079 36.3262 102.687 36.6633 102.513C36.7948 102.445 36.9363 102.335 36.9881 102.032C37.2964 100.22 36.6384 96.7071 36.2452 94.6085C36.0383 93.5053 35.939 92.9614 35.939 92.6624C35.939 91.6817 37.7284 89.6402 38.7949 88.5105C39.0427 88.2477 39.456 88.2363 39.7186 88.4843C39.9807 88.7323 39.9925 89.1459 39.7447 89.4083C38.45 90.78 37.3051 92.2788 37.2446 92.682C37.2455 92.8537 37.3896 93.6234 37.5294 94.3679C37.9649 96.6936 38.6234 100.209 38.2758 102.252C38.1665 102.897 37.816 103.389 37.2633 103.675C36.8967 103.865 36.4351 103.96 35.8803 103.96L35.8798 103.961Z" fill="#650000"/>
<path d="M76.6317 105.116C74.9546 105.116 73.3486 104.07 72.0643 103.235C71.901 103.128 71.7417 103.025 71.5858 102.926C71.0318 102.573 69.2699 102.959 67.8537 103.269C65.0988 103.873 61.9756 104.557 61.2601 102.094C60.2254 98.5346 65.138 94.5784 65.3479 94.4115C65.6301 94.187 66.0408 94.2341 66.2655 94.5165C66.4898 94.7989 66.4432 95.2104 66.161 95.4349C64.9246 96.4203 61.8589 99.4721 62.5147 101.729C62.8618 102.923 64.9198 102.573 67.5745 101.991C69.5621 101.556 71.2787 101.18 72.2869 101.822C72.4463 101.924 72.6096 102.03 72.7764 102.138C74.517 103.271 76.4893 104.555 78.2438 103.238C79.2219 102.503 79.7436 101.806 80.2035 101.19C80.7788 100.421 81.3222 99.694 82.4706 99.5301C82.6679 99.5018 82.9117 99.4734 83.1874 99.4416C84.6977 99.2669 88.2338 98.8567 88.0927 97.4084C87.9437 95.8812 85.0343 93.0072 83.2353 91.5549C82.9544 91.3283 82.9104 90.9164 83.1369 90.6357C83.3633 90.355 83.7744 90.3101 84.0553 90.5372C84.5753 90.9569 89.1417 94.7131 89.3921 97.2815C89.6578 100.008 85.546 100.485 83.3372 100.741C83.0746 100.771 82.8429 100.798 82.6548 100.825C82.0665 100.909 81.8139 101.219 81.2495 101.974C80.7618 102.626 80.1552 103.438 79.0273 104.285C78.2308 104.883 77.4225 105.116 76.6312 105.116L76.6317 105.116Z" fill="#650000"/>
<path d="M67.247 95.5935C61.5623 95.5935 55.1206 94.6599 48.1738 92.7744C34.9256 89.1446 26.6162 83.2641 23.4755 75.2959C20.1197 66.7824 23.7325 58.6272 25.0737 56.0749C18.1091 54.5912 12.7248 51.8044 8.63215 47.5701C3.53702 42.2989 -0.0922771 34.8947 0.00178684 29.9643C0.043593 27.7511 0.458607 26.5547 1.30779 26.199C1.39097 26.1641 1.47241 26.1397 1.55253 26.1236C0.276575 21.8488 0.166834 17.7727 0.218221 15.6872C0.269608 13.6138 0.544832 10.066 1.81382 9.59526C2.82283 9.22174 4.35442 10.4813 5.62036 11.8172C5.5459 8.29904 6.40815 4.68453 7.85046 2.85395C8.51326 2.01232 9.27536 1.54073 10.115 1.45138C12.2654 1.22256 13.2526 4.11008 14.8804 8.89441C16.014 12.2248 17.4241 16.3697 19.6777 20.9296C24.8312 31.3569 34.437 36.6307 34.5333 36.6825C34.6613 36.7518 34.7628 36.8617 34.8215 36.995C35.0058 37.4148 35.2026 37.8859 35.4177 38.4015C38.1112 44.8556 43.7154 58.2851 64.446 63.5907C75.9575 66.5366 84.5165 64.5247 89.6695 62.318C94.0204 60.4547 96.7465 58.1426 97.7538 57.1954C97.0448 56.604 95.0795 55.2367 89.9051 52.7624C83.2936 49.6012 83.0167 46.0316 83.2031 44.6434C76.1121 41.1016 73.7954 37.8519 73.1073 35.7315C72.6984 34.471 72.8099 33.5152 72.9571 32.9643C69.6204 30.0864 67.6211 24.5345 68.1132 21.4678C68.3484 20.0021 69.0865 19.4481 69.6644 19.2415C70.9112 18.7948 72.6283 19.5292 74.7656 21.4238C80.6024 26.5961 85.4009 29.2909 90.4817 32.1436C92.5973 33.3317 94.7856 34.5604 97.1276 36.01C105.788 41.371 114.298 52.3514 113.011 62.1424C111.781 71.4992 95.4483 73.5787 91.8535 73.9239C92.454 80.846 90.5183 86.2711 86.0942 90.0547C81.7969 93.7302 75.2769 95.5935 67.2462 95.5935H67.247ZM1.79728 27.4085C1.80381 27.4102 1.35091 27.7249 1.30779 29.9892C1.22113 34.5303 4.77379 41.6974 9.57061 46.6605C13.6419 50.8726 19.0828 53.5905 26.2047 54.97C26.415 55.011 26.5923 55.1526 26.6785 55.3492C26.7647 55.5457 26.749 55.772 26.6367 55.955C26.5796 56.0479 20.9637 65.3807 24.6949 74.8278C27.6801 82.3863 35.6947 87.9997 48.5166 91.5126C64.8514 95.9461 78.2394 95.0526 85.2459 89.0605C89.4627 85.4543 91.2268 80.1849 90.49 73.3991C90.4708 73.2221 90.5244 73.0456 90.6385 72.9092C90.7521 72.7728 90.9167 72.6886 91.094 72.6764C91.2878 72.6629 110.501 71.2129 111.716 61.9719C112.932 52.7258 104.753 42.268 96.4408 37.1223C94.1223 35.6871 91.9466 34.4654 89.8428 33.2842C84.6998 30.3963 79.842 27.6683 73.9003 22.4032C71.5143 20.2889 70.4513 20.349 70.1047 20.4732C69.6592 20.6328 69.4776 21.2151 69.4035 21.6758C68.9589 24.4425 70.9678 29.7699 74.1285 32.236C74.3793 32.4313 74.4529 32.7786 74.3036 33.0593C74.2901 33.0868 73.8785 33.9484 74.3759 35.4042C75.0278 37.3132 77.2674 40.3014 84.2356 43.6954C84.5387 43.8431 84.6798 44.1971 84.5613 44.513C84.5126 44.6547 83.382 48.1947 90.4686 51.5834C98.0739 55.2202 99.1208 56.6454 99.2531 56.8947C99.3829 57.1388 99.3455 57.4387 99.1595 57.6431C99.0363 57.7786 96.0737 60.9843 90.2504 63.4931C84.901 65.7978 76.0259 67.9056 64.1229 64.859C42.7617 59.3917 36.9876 45.556 34.2127 38.9071C34.0346 38.4804 33.8691 38.0842 33.7137 37.7238C32.2383 36.8857 23.4956 31.604 18.5071 21.511C16.2156 16.874 14.7899 12.6841 13.6445 9.31763C12.3742 5.58369 11.3683 2.63385 10.2534 2.75327C9.77703 2.80383 9.31368 3.11067 8.87689 3.66507C7.37927 5.56582 6.58278 9.94612 7.06355 13.6369C7.10143 13.9268 6.94248 14.2066 6.67379 14.3221C6.40597 14.4376 6.09286 14.3609 5.90909 14.1342C4.53515 12.4444 2.86246 10.922 2.29851 10.8344C1.546 11.8364 0.763008 19.2842 2.92386 26.1402C2.9317 26.1655 2.93824 26.1907 2.94259 26.2164L3.07236 26.9103C3.12462 27.1888 2.99136 27.4695 2.7427 27.6051C2.49405 27.7411 2.1866 27.7001 1.98061 27.5053C1.93271 27.463 1.83473 27.4111 1.79684 27.4107L1.79728 27.4085Z" fill="#650000"/>
<path d="M10.3479 61.938C10.3479 61.938 9.45433 65.7229 6.54358 65.8833C9.45433 66.0437 10.3479 69.8286 10.3479 69.8286C10.3479 69.8286 11.2415 66.0437 14.1523 65.8833C11.2415 65.7229 10.3479 61.938 10.3479 61.938Z" fill="#FFD833"/>
<path d="M9.96259 61.938L10.1189 59.5181C10.1398 59.2352 10.5575 59.2357 10.5775 59.5181L10.7338 61.938C10.7504 62.4801 9.94604 62.4815 9.96215 61.938H9.96259Z" fill="#650000"/>
<path d="M10.142 72.2485L9.96257 69.8286C9.94123 69.2812 10.7551 69.2803 10.7342 69.8286L10.5548 72.2485C10.5374 72.4995 10.159 72.4986 10.142 72.2485Z" fill="#650000"/>
<path d="M6.54362 66.2694L4.71025 66.1125C4.43285 66.0868 4.43415 65.6784 4.71025 65.654L6.54362 65.4971C7.09668 65.4705 7.09755 66.296 6.54362 66.2694Z" fill="#650000"/>
<path d="M15.9862 66.1125L14.1528 66.2694C13.5997 66.296 13.5989 65.471 14.1528 65.4971L15.9862 65.654C16.2636 65.6797 16.2623 66.0881 15.9862 66.1125Z" fill="#650000"/>
<path d="M10.348 70.2143C10.1695 70.2143 10.014 70.0914 9.97265 69.918C9.96394 69.8831 9.10691 66.4115 6.52234 66.269C6.31766 66.2577 6.15784 66.0886 6.15784 65.8833C6.15784 65.678 6.31766 65.5089 6.52234 65.4976C9.10691 65.355 9.96394 61.8835 9.97265 61.8486C10.014 61.6747 10.1695 61.5522 10.348 61.5522C10.5266 61.5522 10.6821 61.6747 10.7234 61.8486C10.7321 61.8835 11.5892 65.355 14.1737 65.4976C14.3784 65.5089 14.5382 65.678 14.5382 65.8833C14.5382 66.0886 14.3784 66.2577 14.1737 66.269C11.5887 66.4115 10.7317 69.8831 10.7234 69.918C10.6821 70.0919 10.5266 70.2143 10.348 70.2143ZM8.01299 65.8833C9.23582 66.5048 9.96002 67.7387 10.348 68.6453C10.7365 67.7387 11.4607 66.5044 12.6835 65.8833C11.4607 65.2618 10.7365 64.0279 10.348 63.1213C9.95959 64.0279 9.23538 65.2622 8.01299 65.8833Z" fill="#650000"/>
<path d="M100.626 82.0808C100.626 82.0808 99.9019 85.1461 97.5447 85.276C99.9019 85.4059 100.626 88.4712 100.626 88.4712C100.626 88.4712 101.349 85.4059 103.707 85.276C101.349 85.1461 100.626 82.0808 100.626 82.0808Z" fill="#FFD833"/>
<path d="M100.313 82.0808L100.44 80.1208C100.454 79.8928 100.798 79.8933 100.811 80.1208L100.938 82.0808C100.951 82.5201 100.3 82.521 100.313 82.0808Z" fill="#650000"/>
<path d="M100.459 90.4313L100.313 88.4713C100.296 88.028 100.955 88.0271 100.938 88.4713L100.793 90.4313C100.778 90.6348 100.472 90.634 100.459 90.4313Z" fill="#650000"/>
<path d="M97.5447 85.589L96.0597 85.4621C95.8359 85.4443 95.8372 85.1078 96.0597 85.0908L97.5447 84.964C97.9928 84.9422 97.9933 85.6108 97.5447 85.5894V85.589Z" fill="#650000"/>
<path d="M105.192 85.4617L103.707 85.5885C103.259 85.6103 103.258 84.9417 103.707 84.9631L105.192 85.0899C105.416 85.1078 105.414 85.4443 105.192 85.4613V85.4617Z" fill="#650000"/>
<path d="M100.626 88.7842C100.481 88.7842 100.355 88.6848 100.322 88.544C100.315 88.5157 99.6207 85.704 97.5273 85.5885C97.3618 85.5794 97.2321 85.4425 97.2321 85.2765C97.2321 85.1104 97.3614 84.9731 97.5273 84.9644C99.6207 84.8489 100.315 82.0372 100.322 82.0089C100.355 81.8681 100.481 81.7687 100.626 81.7687C100.77 81.7687 100.896 81.8681 100.93 82.0089C100.937 82.0372 101.631 84.8489 103.724 84.9644C103.89 84.9736 104.019 85.1104 104.019 85.2765C104.019 85.4425 103.89 85.5798 103.724 85.5885C101.624 85.7045 100.937 88.5153 100.93 88.5436C100.896 88.6844 100.771 88.7842 100.626 88.7842ZM98.7345 85.2765C99.7247 85.7799 100.311 86.7793 100.626 87.5137C100.94 86.7793 101.527 85.7799 102.517 85.2765C101.527 84.7731 100.94 83.7737 100.626 83.0392C100.311 83.7737 99.7247 84.7731 98.7345 85.2765Z" fill="#650000"/>
<path d="M111.781 15.318C111.781 15.318 110.677 19.9921 107.083 20.1904C110.677 20.3887 111.781 25.0628 111.781 25.0628C111.781 25.0628 112.885 20.3887 116.48 20.1904C112.885 19.9921 111.781 15.318 111.781 15.318Z" fill="#FFD833"/>
<path d="M111.305 15.318L111.498 12.3294C111.524 11.9798 112.039 11.9807 112.064 12.3294L112.258 15.318C112.278 15.9875 111.284 15.9892 111.305 15.318Z" fill="#650000"/>
<path d="M111.526 28.0514L111.305 25.0627C111.279 24.3867 112.284 24.3854 112.258 25.0627L112.036 28.0514C112.01 28.363 111.551 28.3621 111.526 28.0514Z" fill="#650000"/>
<path d="M107.083 20.6672L104.819 20.4737C104.476 20.4419 104.478 19.9376 104.819 19.9071L107.083 19.7136C107.766 19.6809 107.767 20.6999 107.083 20.6672Z" fill="#650000"/>
<path d="M118.744 20.4737L116.48 20.6672C115.796 20.7003 115.795 19.6809 116.48 19.7136L118.744 19.9071C119.087 19.9389 119.085 20.4432 118.744 20.4737Z" fill="#650000"/>
<path d="M111.781 25.5396C111.56 25.5396 111.368 25.3875 111.317 25.1726C111.307 25.1299 110.248 20.8424 107.057 20.6668C106.804 20.6528 106.606 20.4436 106.606 20.1904C106.606 19.9371 106.804 19.7279 107.057 19.714C110.249 19.5379 111.307 15.2509 111.318 15.2073C111.369 14.9928 111.561 14.8407 111.781 14.8407C112.002 14.8407 112.194 14.9928 112.244 15.2077C112.261 15.2744 113.322 19.5383 116.505 19.7135C116.758 19.7275 116.956 19.9367 116.956 20.1899C116.956 20.4432 116.758 20.6524 116.505 20.6663C113.303 20.8428 112.255 25.129 112.244 25.1721C112.194 25.3875 112.002 25.5391 111.781 25.5391L111.781 25.5396ZM108.897 20.1904C110.407 20.9579 111.301 22.4821 111.781 23.6013C112.261 22.4816 113.155 20.9575 114.665 20.1904C113.156 19.4228 112.261 17.8987 111.781 16.7794C111.302 17.8991 110.407 19.4233 108.897 20.1904Z" fill="#650000"/>
</g>
<defs>
<clipPath id="clip0_4670_38888">
<rect width="119" height="108" fill="white"/>
</clipPath>
</defs>
</svg>
