<svg width="40" height="40" viewBox="0 0 40 40" fill="none" xmlns="http://www.w3.org/2000/svg">
<path d="M6.66675 19.8434V13.485C6.66675 11.405 7.95508 9.54169 9.90008 8.80668L23.8217 3.55002C26.0034 2.72835 28.3334 4.33835 28.3334 6.67002V12.2534" stroke="#313855" stroke-width="2" stroke-linecap="round" stroke-linejoin="round"/>
<path d="M28.7484 23.5017C28.5184 23.5033 28.3334 23.69 28.3334 23.92C28.3334 24.15 28.5201 24.3367 28.7501 24.335C28.9801 24.335 29.1667 24.1483 29.1667 23.9183C29.1667 23.6883 28.9801 23.5017 28.7484 23.5017" stroke="#313855" stroke-width="2" stroke-linecap="round" stroke-linejoin="round"/>
<path d="M17.7701 35H30.0001C32.7501 35 35.0001 32.75 35.0001 30V17.2517C35.0001 14.49 32.7617 12.2517 30.0001 12.2517H10.0001C8.15841 12.2517 6.66675 13.7434 6.66675 15.585V20.4284" stroke="#313855" stroke-width="2" stroke-linecap="round" stroke-linejoin="round"/>
<path d="M12.5 36.6666C7.43837 36.6666 3.33337 32.5616 3.33337 27.5C3.33337 22.4383 7.43837 18.3333 12.5 18.3333C17.5634 18.3333 21.6667 22.4383 21.6667 27.5C21.6667 32.5616 17.5634 36.6666 12.5 36.6666" stroke="#313855" stroke-width="2" stroke-linecap="round" stroke-linejoin="round"/>
<path d="M12.5001 23.845V31.1567" stroke="#313855" stroke-width="2" stroke-linecap="round" stroke-linejoin="round"/>
<path d="M16.1551 27.5H8.84509" stroke="#313855" stroke-width="2" stroke-linecap="round" stroke-linejoin="round"/>
</svg>
