<svg width="13" height="21" viewBox="0 0 13 21" fill="none" xmlns="http://www.w3.org/2000/svg">
<path d="M7.74996 16.2566L7.74996 1.29165C7.74996 0.578282 7.17168 -9.66897e-07 6.45832 -1.06044e-06C5.74495 -1.15399e-06 5.16667 0.578282 5.16667 1.29165L5.16667 16.2566L2.20501 13.2949C1.7006 12.7905 0.88273 12.7905 0.378313 13.2949C-0.126103 13.7994 -0.126103 14.6172 0.378313 15.1216L5.54496 20.2884C5.57505 20.3185 5.60672 20.3469 5.63966 20.3739C5.65455 20.3861 5.6703 20.3968 5.68561 20.4082C5.70402 20.422 5.722 20.4363 5.7412 20.4491C5.75954 20.4614 5.77861 20.4721 5.79744 20.4833C5.81476 20.4937 5.83171 20.5046 5.84957 20.5141C5.86877 20.5244 5.88857 20.5332 5.90818 20.5424C5.92677 20.5511 5.94506 20.5604 5.96413 20.5683C5.9832 20.5762 6.0027 20.5826 6.02207 20.5895C6.04248 20.5968 6.06258 20.6047 6.08341 20.611C6.10278 20.6168 6.12246 20.6211 6.14208 20.626C6.16333 20.6314 6.18434 20.6374 6.20601 20.6417C6.22872 20.6461 6.25161 20.6488 6.27443 20.6521C6.29326 20.6547 6.31185 20.6584 6.33092 20.6602C6.41569 20.6686 6.50112 20.6686 6.58589 20.6602C6.60496 20.6584 6.62348 20.6548 6.64238 20.6521C6.6652 20.6488 6.68815 20.6461 6.71079 20.6416C6.73247 20.6373 6.75342 20.6314 6.77467 20.626C6.79429 20.6211 6.81397 20.6168 6.83334 20.6109C6.85417 20.6046 6.87433 20.5968 6.89467 20.5895C6.91405 20.5825 6.93355 20.5761 6.95262 20.5683C6.97169 20.5604 6.98992 20.5511 7.0085 20.5423C7.02812 20.533 7.04792 20.5243 7.06717 20.514C7.08497 20.5045 7.10187 20.4936 7.11918 20.4833C7.13807 20.472 7.15715 20.4613 7.17555 20.4491C7.19468 20.4363 7.21261 20.422 7.23101 20.4083C7.24639 20.3968 7.26213 20.3861 7.27709 20.3739C7.30978 20.347 7.34121 20.3188 7.37106 20.2889C7.3713 20.2887 7.37154 20.2885 7.37172 20.2883L12.5384 15.1217C13.0428 14.6172 13.0428 13.7994 12.5384 13.295C12.034 12.7905 11.2161 12.7905 10.7117 13.2949L7.74996 16.2566Z" fill="#F1307F"/>
</svg>
