<svg width="40" height="40" viewBox="0 0 40 40" fill="none" xmlns="http://www.w3.org/2000/svg">
<path d="M4.99365 11.6631H31.6714C33.5131 11.6631 35.0062 13.1561 35.0062 14.9978V30.8377C35.0062 33.1399 33.1399 35.0061 30.8378 35.0061H21.6673" stroke="#3D3D3D" stroke-width="2" stroke-linecap="round" stroke-linejoin="round"/>
<path d="M28.3367 11.6632V9.99579C28.3367 8.15408 26.8437 6.66107 25.002 6.66107H9.16206C6.85991 6.66107 4.99365 8.52733 4.99365 10.8295V25.002" stroke="#3D3D3D" stroke-width="2" stroke-linecap="round" stroke-linejoin="round"/>
<path d="M28.3367 23.3347H25.002" stroke="#3D3D3D" stroke-width="2" stroke-linecap="round" stroke-linejoin="round"/>
<path d="M19.4503 30.1305L19.4504 30.1306C19.5903 30.5807 19.4766 31.0689 19.1481 31.4031C19.148 31.4031 19.148 31.4031 19.148 31.4031L16.8123 33.7798C16.7695 33.8233 16.748 33.8885 16.7588 33.9542L17.3104 37.3099L17.3104 37.31C17.3869 37.7754 17.2075 38.2425 16.8347 38.5255C16.6238 38.6856 16.3743 38.7681 16.122 38.7681C15.9279 38.7681 15.7339 38.7193 15.5562 38.6216C15.5561 38.6216 15.5561 38.6216 15.556 38.6215L12.6688 37.0372L19.4503 30.1305ZM19.4503 30.1305C19.3098 29.6794 18.9393 29.3485 18.4771 29.2783L18.477 29.2783M19.4503 30.1305L18.477 29.2783M18.477 29.2783L15.2486 28.7887L18.477 29.2783ZM15.1194 28.6879L15.1195 28.6881C15.1467 28.7458 15.1965 28.7807 15.2486 28.7887L15.1194 28.6879ZM15.1194 28.6879L13.6761 25.6346C13.4745 25.2079 13.0599 24.9352 12.5924 24.9352C12.1253 24.9352 11.7107 25.208 11.5091 25.6346L10.0655 28.6879L10.0654 28.6881M15.1194 28.6879L10.0654 28.6881M10.0654 28.6881C10.0383 28.7457 9.98825 28.7807 9.93598 28.7887L6.70772 29.2785C6.70768 29.2785 6.70764 29.2786 6.70761 29.2786C6.24552 29.3485 5.87507 29.6795 5.73456 30.1305L5.73452 30.1306M10.0654 28.6881L5.73452 30.1306M5.73452 30.1306C5.59463 30.5807 5.70834 31.0689 6.03685 31.4031C6.03685 31.4031 6.03686 31.4031 6.03686 31.4031L8.37264 33.7795C8.41534 33.823 8.43687 33.8884 8.4261 33.9538L8.42608 33.9539M5.73452 30.1306L8.42608 33.9539M8.42608 33.9539L7.87475 37.31M8.42608 33.9539L7.87475 37.31M16.2908 37.4852L16.2908 37.4852L15.7395 34.1296C15.6734 33.7287 15.8 33.3177 16.0826 33.0301L16.0826 33.03L18.4184 30.6536C18.4701 30.601 18.4889 30.5285 18.4649 30.4513L18.4648 30.4512C18.4411 30.375 18.3888 30.3338 18.3252 30.3241L15.0971 29.8345C15.097 29.8345 15.097 29.8345 15.097 29.8345C14.6998 29.7744 14.3618 29.5152 14.1885 29.1481L12.7451 26.0951C12.7118 26.0247 12.6558 25.9925 12.5922 25.9925C12.5287 25.9925 12.4727 26.0248 12.4397 26.0948L12.4396 26.0949L10.9961 29.1481L16.2908 37.4852ZM16.2908 37.4852C16.304 37.5657 16.2751 37.6335 16.2186 37.6765C16.1636 37.7179 16.1036 37.7219 16.0448 37.6901C16.0447 37.69 16.0446 37.6899 16.0445 37.6899L13.1578 36.1055L13.1575 36.1054M16.2908 37.4852L13.1575 36.1054M13.1575 36.1054C12.9816 36.0092 12.7871 35.9602 12.5924 35.9602C12.3976 35.9602 12.2034 36.0092 12.0273 36.1057L12.0271 36.1058M13.1575 36.1054L12.0271 36.1058M12.0271 36.1058L9.14131 37.6897C9.14116 37.6898 9.14101 37.6899 9.14086 37.6899C9.08103 37.7222 9.02097 37.7176 8.96646 37.6764L8.81562 37.8758L8.96673 37.6766C8.91034 37.6338 8.88125 37.5663 8.89441 37.485C8.89442 37.4849 8.89443 37.4848 8.89444 37.4848L9.44571 34.1295L9.44572 34.1294M12.0271 36.1058L9.44572 34.1294M9.44572 34.1294C9.51142 33.729 9.385 33.3177 9.10231 33.0303C9.10228 33.0303 9.10226 33.0303 9.10224 33.0302L6.76618 30.6536C6.71427 30.6007 6.69569 30.5283 6.71966 30.4517L6.71981 30.4512M9.44572 34.1294L6.71981 30.4512M6.71981 30.4512C6.7435 30.375 6.79587 30.3338 6.85944 30.3241M6.71981 30.4512L6.85944 30.3241M7.87475 37.31C7.79829 37.7754 7.97764 38.2425 8.35048 38.5255M7.87475 37.31L8.35048 38.5255M8.35048 38.5255C8.72491 38.8102 9.217 38.848 9.629 38.6216L8.35048 38.5255ZM6.85944 30.3241L10.0873 29.8345C10.0873 29.8345 10.0873 29.8345 10.0873 29.8345C10.0873 29.8345 10.0874 29.8345 10.0874 29.8345C10.4844 29.7744 10.8227 29.5154 10.996 29.1483L6.85944 30.3241ZM9.62916 38.6215L12.5161 37.0372L9.62916 38.6215ZM12.5162 37.0371C12.5644 37.0108 12.6205 37.0108 12.6687 37.0371L12.5162 37.0371Z" fill="#3D3D3D" stroke="#3D3D3D" stroke-width="0.5"/>
</svg>
