<svg width="24" height="24" viewBox="0 0 24 24" fill="none" xmlns="http://www.w3.org/2000/svg">
<path d="M12 0C5.37266 0 0 5.37266 0 12C0 18.6273 5.37266 24 12 24C18.6273 24 24 18.6273 24 12C23.9926 5.37578 18.6242 0.0074219 12 0ZM22.3783 16.2039L18.9656 16.7928C19.3563 15.3602 19.5672 13.8846 19.5936 12.4H23.19C23.1449 13.7059 22.8701 14.9936 22.3783 16.2039ZM0.809961 12.4H4.40645C4.43281 13.8846 4.64375 15.3602 5.03438 16.7928L1.62168 16.2039C1.12988 14.9936 0.855078 13.7059 0.809961 12.4ZM1.62168 7.79609L5.03438 7.20723C4.64375 8.63984 4.43281 10.1154 4.40645 11.6H0.809961C0.855078 10.2941 1.12988 9.00645 1.62168 7.79609ZM12.4 6.42246C13.8373 6.44082 15.2711 6.57168 16.6881 6.81406L18.1 7.05762C18.5338 8.53379 18.7672 10.0615 18.7939 11.6H12.4V6.42246ZM16.8244 6.02559C15.3625 5.77578 13.883 5.64082 12.4 5.62246V0.822461C14.6932 1.04277 16.6852 3.14238 17.8141 6.19805L16.8244 6.02559ZM11.6 5.62246C10.117 5.64082 8.63789 5.77578 7.17598 6.02559L6.18594 6.19688C7.31484 3.14043 9.30684 1.04004 11.6 0.820703V5.62246ZM7.3123 6.81406C8.7291 6.57168 10.1627 6.44082 11.6 6.42246V11.6H5.20605C5.23281 10.0615 5.46621 8.53379 5.9 7.05762L7.3123 6.81406ZM5.20605 12.4H11.6V17.5775C10.1627 17.5592 8.72891 17.4283 7.31191 17.1859L5.9 16.9424C5.46621 15.4662 5.23281 13.9385 5.20605 12.4ZM7.17559 17.9744C8.6375 18.2246 10.1168 18.3602 11.6 18.3797V23.1797C9.30684 22.9592 7.31484 20.8596 6.18594 17.8039L7.17559 17.9744ZM12.4 18.3797C13.883 18.3602 15.3621 18.2246 16.824 17.9744L17.8141 17.8031C16.6852 20.8596 14.6932 22.96 12.4 23.1793V18.3797ZM16.6877 17.1859C15.2709 17.4283 13.8373 17.5592 12.4 17.5775V12.4H18.7939C18.7672 13.9385 18.5338 15.4662 18.1 16.9424L16.6877 17.1859ZM19.5936 11.6C19.5672 10.1154 19.3563 8.63984 18.9656 7.20723L22.3783 7.79609C22.8701 9.00645 23.1449 10.2941 23.19 11.6H19.5936ZM21.9736 6.91445L18.7023 6.35C18.1143 4.43145 17.0141 2.70957 15.5199 1.36992C18.3139 2.30234 20.6309 4.29277 21.9736 6.91445ZM8.48008 1.36992C6.98594 2.70957 5.88574 4.43145 5.29766 6.35L2.02637 6.91445C3.36914 4.29277 5.68613 2.30234 8.48008 1.36992ZM2.02637 17.0855L5.29766 17.65C5.88574 19.5686 6.98594 21.2904 8.48008 22.6301C5.68613 21.6977 3.36914 19.7072 2.02637 17.0855ZM15.5199 22.6301C17.0141 21.2904 18.1143 19.5686 18.7023 17.65L21.9736 17.0855C20.6309 19.7072 18.3139 21.6977 15.5199 22.6301Z" fill="#313855"/>
</svg>
