<svg width="40" height="40" viewBox="0 0 40 40" fill="none" xmlns="http://www.w3.org/2000/svg">
<path d="M6.66663 19.8434V13.485C6.66663 11.405 7.95496 9.54169 9.89996 8.80668L23.8216 3.55002C26.0033 2.72835 28.3333 4.33835 28.3333 6.67002V12.2534" stroke="#313855" stroke-width="2" stroke-linecap="round" stroke-linejoin="round"/>
<path d="M28.7483 23.5017C28.5183 23.5033 28.3333 23.69 28.3333 23.92C28.3333 24.15 28.52 24.3367 28.75 24.335C28.98 24.335 29.1666 24.1483 29.1666 23.9183C29.1666 23.6883 28.98 23.5017 28.7483 23.5017" stroke="#313855" stroke-width="2" stroke-linecap="round" stroke-linejoin="round"/>
<path d="M17.77 35H30C32.75 35 35 32.75 35 30V17.2517C35 14.49 32.7616 12.2517 30 12.2517H9.99996C8.15829 12.2517 6.66663 13.7434 6.66663 15.585V20.4284" stroke="#313855" stroke-width="2" stroke-linecap="round" stroke-linejoin="round"/>
<path d="M12.5 36.6666C7.43837 36.6666 3.33337 32.5616 3.33337 27.5C3.33337 22.4383 7.43837 18.3333 12.5 18.3333C17.5634 18.3333 21.6667 22.4383 21.6667 27.5C21.6667 32.5616 17.5634 36.6666 12.5 36.6666" stroke="#313855" stroke-width="2" stroke-linecap="round" stroke-linejoin="round"/>
<path d="M16.155 27.5H8.84497" stroke="#313855" stroke-width="2" stroke-linecap="round" stroke-linejoin="round"/>
</svg>
