<svg width="128" height="14" viewBox="0 0 128 14" fill="none" xmlns="http://www.w3.org/2000/svg">
<path d="M123.803 4.22943H1.20947V9.2463H123.803V4.22943Z" fill="#50A7EA"/>
<path d="M6.30728 13.0396C9.7907 13.0396 12.6146 10.2182 12.6146 6.73787C12.6146 3.25755 9.7907 0.436188 6.30728 0.436188C2.82387 0.436188 0 3.25755 0 6.73787C0 10.2182 2.82387 13.0396 6.30728 13.0396Z" fill="#50A7EA"/>
<path d="M121.293 13.0396C124.776 13.0396 127.6 10.2182 127.6 6.73787C127.6 3.25755 124.776 0.436188 121.293 0.436188C117.809 0.436188 114.985 3.25755 114.985 6.73787C114.985 10.2182 117.809 13.0396 121.293 13.0396Z" fill="#50A7EA"/>
</svg>
