<svg width="128" height="87" viewBox="0 0 128 87" fill="none" xmlns="http://www.w3.org/2000/svg">
<g clip-path="url(#clip0_888_8483)">
<path d="M109.56 0.150627L18.2117 0.00247192L18.0705 86.8648L109.419 87.0129L109.56 0.150627Z" fill="#EBEBEB"/>
<path d="M53.4434 34.2157H29.6074V10.3856H53.4434V34.2157ZM34.6288 29.1836H48.4221V15.4024H34.6288V29.1836Z" fill="#545454"/>
<path d="M44.901 18.9357H38.165V25.6656H44.901V18.9357Z" fill="#545454"/>
<path d="M53.4434 77.7157H29.6074V53.9008H53.4434V77.7157ZM34.6288 72.6836H48.4221V58.9024H34.6288V72.6836Z" fill="#545454"/>
<path d="M44.901 62.4357H38.165V69.1656H44.901V62.4357Z" fill="#545454"/>
<path d="M98.7427 34.2157H74.8914V10.3856H98.7427V34.2157ZM79.928 29.1836H93.7214V15.4024H79.928V29.1836Z" fill="#545454"/>
<path d="M90.1849 18.9357H83.449V25.6656H90.1849V18.9357Z" fill="#545454"/>
<path d="M39.6501 41.2669H29.6074V46.2838H39.6501V41.2669Z" fill="#545454"/>
<path d="M66.8235 46.2991H45.4216V41.2669H61.8022V29.1836H66.8235V46.2991Z" fill="#545454"/>
<path d="M66.8236 53.9008H61.8022V77.7157H66.8236V53.9008Z" fill="#545454"/>
<path d="M98.7426 41.2669H88.1794V46.2838H98.7426V41.2669Z" fill="#545454"/>
<path d="M81.8876 41.2669H74.8914V46.2838H81.8876V41.2669Z" fill="#545454"/>
<path d="M79.928 64.1182H74.8914V53.9008H88.2101V58.9177H79.928V64.1182Z" fill="#545454"/>
<path d="M79.9127 69.7162H74.8914V77.7158H79.9127V69.7162Z" fill="#545454"/>
<path d="M66.8236 10.3856H61.8022V23.096H66.8236V10.3856Z" fill="#545454"/>
<path d="M98.7427 53.9008H93.1855V58.9177H98.7427V53.9008Z" fill="#545454"/>
<path d="M92.6803 77.7157H87.6589V66.5348H98.7426V71.5517H92.6803V77.7157Z" fill="#545454"/>
<path d="M123.803 29.2294H1.20947V34.2463H123.803V29.2294Z" fill="#50A7EA"/>
<path d="M6.30728 38.0396C9.7907 38.0396 12.6146 35.2182 12.6146 31.7379C12.6146 28.2575 9.7907 25.4362 6.30728 25.4362C2.82387 25.4362 0 28.2575 0 31.7379C0 35.2182 2.82387 38.0396 6.30728 38.0396Z" fill="#50A7EA"/>
<path d="M121.293 38.0396C124.776 38.0396 127.6 35.2182 127.6 31.7379C127.6 28.2575 124.776 25.4362 121.293 25.4362C117.809 25.4362 114.985 28.2575 114.985 31.7379C114.985 35.2182 117.809 38.0396 121.293 38.0396Z" fill="#50A7EA"/>
</g>
<defs>
<clipPath id="clip0_888_8483">
<rect width="127.6" height="87" fill="white"/>
</clipPath>
</defs>
</svg>
