<svg width="28" height="28" viewBox="0 0 28 28" fill="none" xmlns="http://www.w3.org/2000/svg">
<path d="M14 0C6.31042 0 0 6.31042 0 14C0 20.5619 4.60443 26.5226 10.7188 28V23.3682C10.1129 23.5009 9.55536 23.5047 8.93863 23.3229C8.11127 23.0788 7.439 22.5276 6.93997 21.6872C6.62189 21.1506 6.05814 20.5687 5.47003 20.6114L5.32584 18.9772C6.59753 18.8683 7.69769 19.752 8.35074 20.8492C8.64084 21.3371 8.97473 21.6231 9.40326 21.7496C9.81747 21.8716 10.2622 21.813 10.7805 21.63C10.9106 20.5924 11.3859 20.204 11.745 19.6572V19.6563C8.09845 19.1124 6.64517 17.1779 6.06839 15.6509C5.30405 13.6234 5.7142 11.0905 7.0658 9.48978C7.09207 9.45859 7.1395 9.37698 7.12112 9.31995C6.5014 7.44797 7.25656 5.89941 7.28433 5.73514C7.99954 5.94662 8.11575 5.52237 10.3911 6.90472L10.7843 7.14099C10.9488 7.23904 10.8971 7.18307 11.0616 7.17068C12.0116 6.91263 13.0131 6.77014 13.9998 6.75732C14.994 6.77014 15.989 6.91263 16.9783 7.18115L17.1057 7.19397C17.0945 7.19226 17.1403 7.18585 17.2169 7.14014C20.0592 5.41855 19.9571 5.98123 20.7193 5.73343C20.7469 5.89792 21.492 7.47168 20.8789 9.31995C20.7962 9.57458 23.343 11.9067 21.9314 15.6502C21.3546 17.1779 19.9016 19.1124 16.255 19.6563V19.6572C16.7224 20.3696 17.284 20.7486 17.281 22.2183V28C23.3956 26.5226 27.9998 20.5619 27.9998 14C28 6.31042 21.6896 0 14 0V0Z" fill="#C0C0C0"/>
</svg>
