<svg width="28" height="28" viewBox="0 0 28 28" fill="none" xmlns="http://www.w3.org/2000/svg">
<path d="M14 28C21.732 28 28 21.732 28 14C28 6.26801 21.732 0 14 0C6.26801 0 0 6.26801 0 14C0 21.732 6.26801 28 14 28Z" fill="#C0C0C0"/>
<path d="M21.6268 7.23868L21.3372 7.34368L5.62224 13.0057C5.51088 13.0402 5.41409 13.1106 5.34704 13.2059C5.28 13.3013 5.24648 13.4162 5.25176 13.5326C5.25704 13.6491 5.3008 13.7605 5.3762 13.8494C5.45159 13.9383 5.55436 13.9997 5.66838 14.0239L9.73634 15.1375L10.4952 17.3648L11.2541 19.5921C11.2977 19.7013 11.3672 19.7982 11.4568 19.8744C11.5463 19.9505 11.6531 20.0037 11.7679 20.0293C11.8826 20.0548 12.0019 20.052 12.1153 20.021C12.2287 19.99 12.3328 19.9318 12.4186 19.8514L14.5202 17.866L18.647 20.6644C19.1513 21.008 19.8704 20.7535 19.9993 20.1871L22.7325 8.1105C22.8661 7.51232 22.2361 7.02072 21.6268 7.23868ZM19.6207 9.91936L12.5204 15.723L12.1863 15.9966C12.1129 16.0548 12.065 16.1392 12.0527 16.2321L11.9779 16.8494L11.7727 18.5835C11.7744 18.6045 11.7676 18.6255 11.7539 18.6416C11.7402 18.6577 11.7206 18.6677 11.6995 18.6694C11.6784 18.671 11.6575 18.6643 11.6414 18.6506C11.6253 18.6368 11.6153 18.6173 11.6136 18.5962L11.0361 16.8637L10.4395 15.0898C10.4143 15.0101 10.4176 14.924 10.449 14.8465C10.4804 14.769 10.5378 14.7048 10.6113 14.665L17.9995 10.43L19.39 9.63459C19.592 9.51686 19.7988 9.773 19.6207 9.91936Z" fill="white"/>
</svg>
