<svg width="40" height="40" viewBox="0 0 40 40" fill="none" xmlns="http://www.w3.org/2000/svg">
<circle cx="20" cy="20" r="20" fill="#F1F1F1"/>
<path d="M26.295 15.115C26.6844 14.7256 26.6844 14.0944 26.295 13.705C25.9056 13.3156 25.2744 13.3156 24.885 13.705L20 18.59L15.115 13.705C14.7256 13.3156 14.0944 13.3156 13.705 13.705C13.3156 14.0944 13.3156 14.7256 13.705 15.115L18.59 20L13.705 24.885C13.3156 25.2744 13.3156 25.9056 13.705 26.295C14.0944 26.6844 14.7256 26.6844 15.115 26.295L20 21.41L24.885 26.295C25.2744 26.6844 25.9056 26.6844 26.295 26.295C26.6844 25.9056 26.6844 25.2744 26.295 24.885L21.41 20L26.295 15.115Z" fill="#9E9C9C"/>
</svg>
