<svg width="63" height="63" viewBox="0 0 63 63" fill="none" xmlns="http://www.w3.org/2000/svg">
<path d="M31.5 0C48.8986 0 63 14.1043 63 31.5C63 48.8986 48.8986 63 31.5 63C14.1043 63 0 48.8972 0 31.5C0 14.1043 14.1043 0 31.5 0Z" fill="#F5AC37"/>
<path d="M32.6608 33.7241H44.6303C44.8854 33.7241 45.0059 33.7241 45.0243 33.3896C45.1221 32.1719 45.1221 30.9472 45.0243 29.7281C45.0243 29.4914 44.9067 29.3936 44.6501 29.3936H20.8288C20.5339 29.3936 20.4546 29.4914 20.4546 29.7678V33.2719C20.4546 33.7241 20.4546 33.7241 20.9266 33.7241H32.6608V33.7241ZM43.6876 25.2984C43.7216 25.2091 43.7216 25.1113 43.6876 25.0234C43.4877 24.5882 43.251 24.1729 42.976 23.7831C42.5621 23.1168 42.0745 22.5031 41.5188 21.9516C41.2566 21.6185 40.9532 21.3194 40.613 21.0657C38.9092 19.6156 36.8835 18.5893 34.7062 18.0733C33.6077 17.8267 32.485 17.709 31.3595 17.7189H20.7877C20.4928 17.7189 20.4531 17.8366 20.4531 18.0932V25.0815C20.4531 25.3764 20.4531 25.4557 20.8274 25.4557H43.5459C43.5459 25.4557 43.7429 25.416 43.7826 25.2984H43.6862H43.6876ZM43.6876 37.8193C43.3531 37.7824 43.0157 37.7824 42.6812 37.8193H20.8486C20.5538 37.8193 20.4546 37.8193 20.4546 38.2134V45.0458C20.4546 45.3605 20.4546 45.4398 20.8486 45.4398H30.9286C31.4105 45.4767 31.8925 45.4427 32.3645 45.342C33.8274 45.2371 35.2662 44.9196 36.6383 44.3966C37.1373 44.2236 37.6192 43.9982 38.0743 43.7275H38.2118C40.5748 42.4985 42.4941 40.5679 43.7046 38.1978C43.7046 38.1978 43.8421 37.9001 43.6876 37.8221V37.8193ZM16.4983 48.9822V48.8646V44.2775V42.7225V38.0957C16.4983 37.8391 16.4983 37.8009 16.1836 37.8009H11.9112C11.6745 37.8009 11.5767 37.8009 11.5767 37.4862V33.7454H16.1439C16.399 33.7454 16.4983 33.7454 16.4983 33.4108V29.7097C16.4983 29.473 16.4983 29.4149 16.1836 29.4149H11.9112C11.6745 29.4149 11.5767 29.4149 11.5767 29.1002V25.6358C11.5767 25.4189 11.5767 25.3608 11.8913 25.3608H16.124C16.4189 25.3608 16.4983 25.3608 16.4983 24.9865V14.375C16.4983 14.0603 16.4983 13.981 16.8923 13.981H31.6572C32.7288 14.0235 33.7934 14.1411 34.8466 14.3353C37.0168 14.7365 39.102 15.5119 41.0085 16.619C42.2729 17.3631 43.4367 18.2619 44.4729 19.2966C45.2525 20.106 45.9556 20.9821 46.5793 21.9148C47.1988 22.8603 47.7134 23.871 48.1173 24.927C48.167 25.202 48.4306 25.3877 48.7056 25.3409H52.2295C52.6817 25.3409 52.6817 25.3409 52.7016 25.7747V29.0038C52.7016 29.3185 52.5839 29.3978 52.2678 29.3978H49.5505C49.2755 29.3978 49.1961 29.3978 49.2159 29.7522C49.3237 30.9514 49.3237 32.1549 49.2159 33.3541C49.2159 33.6887 49.2159 33.7283 49.5916 33.7283H52.7002C52.8377 33.9055 52.7002 34.0827 52.7002 34.2613C52.72 34.4896 52.72 34.7206 52.7002 34.9488V37.3317C52.7002 37.6662 52.6024 37.7654 52.3061 37.7654H48.5851C48.3257 37.7158 48.0734 37.8817 48.0139 38.1397C47.1279 40.4431 45.7104 42.5084 43.879 44.1641C43.2099 44.7665 42.5068 45.3335 41.7725 45.8566C40.9844 46.3102 40.2175 46.7822 39.4096 47.1565C37.9226 47.8255 36.3633 48.3188 34.7629 48.6321C33.2434 48.9043 31.7025 49.0276 30.156 49.0063H16.4926V48.9865L16.4983 48.9822Z" fill="#FEFEFD"/>
</svg>
