<svg width="63" height="63" viewBox="0 0 63 63" fill="none" xmlns="http://www.w3.org/2000/svg">
<path d="M31.5 63C48.897 63 63 48.897 63 31.5C63 14.103 48.897 0 31.5 0C14.103 0 0 14.103 0 31.5C0 48.897 14.103 63 31.5 63Z" fill="#E6007A"/>
<path d="M32.949 13.7812C25.6508 13.7812 19.6875 19.7111 19.6875 27.0428C19.6875 28.5173 19.9316 29.9565 20.3884 31.3583C20.5501 31.821 20.887 32.2018 21.3266 32.4187C21.7662 32.6356 22.2734 32.6712 22.7391 32.5178C23.2015 32.3558 23.5818 32.0187 23.7983 31.5791C24.0148 31.1395 24.0501 30.6325 23.8967 30.1672C23.5118 29.0743 23.3335 27.9193 23.371 26.7612C23.5108 21.8157 27.5113 17.7443 32.4588 17.5002C33.7547 17.4321 35.051 17.6284 36.2687 18.077C37.4864 18.5257 38.6001 19.2174 39.5421 20.11C40.4841 21.0026 41.2346 22.0775 41.7481 23.2694C42.2616 24.4612 42.5273 25.745 42.5289 27.0428C42.526 29.4833 41.591 31.8306 39.9149 33.6047C38.2389 35.3788 35.9485 36.4457 33.5121 36.5872C33.5121 36.5872 31.6516 36.6916 30.7401 36.8333C30.2833 36.9022 29.9329 36.9731 29.6868 37.0086C29.5805 37.044 29.4761 36.9377 29.5096 36.8314L29.8266 35.2898L31.5453 27.3597C31.6455 26.8856 31.5544 26.391 31.2919 25.9836C31.0294 25.5763 30.6167 25.289 30.1435 25.1842C29.6691 25.0841 29.1743 25.1755 28.7669 25.4383C28.3594 25.7012 28.0723 26.1144 27.9681 26.588C27.9681 26.588 23.8278 45.8857 23.7923 46.0963C23.6922 46.5707 23.7835 47.0655 24.0464 47.473C24.3093 47.8804 24.7225 48.1675 25.1961 48.2718C25.6705 48.3719 26.1653 48.2806 26.5727 48.0177C26.9801 47.7548 27.2672 47.3416 27.3715 46.8681C27.405 46.6574 27.9681 44.0961 27.9681 44.0961C28.1673 43.157 28.6518 42.3024 29.3551 41.649C30.0585 40.9957 30.9465 40.5756 31.8977 40.446C32.5859 40.3706 33.2758 40.3122 33.9668 40.2708C37.2979 40.0112 40.4087 38.5052 42.6785 36.0533C44.9483 33.6015 46.2102 30.3839 46.2125 27.0428C46.2125 19.7111 40.2472 13.7812 32.949 13.7812V13.7812ZM33.896 44.3067C33.6103 44.2451 33.3152 44.2408 33.0279 44.294C32.7405 44.3473 32.4666 44.457 32.222 44.6169C31.9773 44.7767 31.7668 44.9835 31.6027 45.2253C31.4385 45.4671 31.324 45.7391 31.2657 46.0254C31.0196 47.2185 31.7579 48.4116 32.9844 48.6577C33.2704 48.7195 33.5658 48.724 33.8535 48.6708C34.1411 48.6176 34.4154 48.5077 34.6603 48.3476C34.9052 48.1875 35.1158 47.9804 35.28 47.7382C35.4442 47.4961 35.5586 47.2237 35.6167 46.937C35.8608 45.7104 35.1245 44.5508 33.896 44.3067V44.3067Z" fill="white"/>
</svg>
