<svg width="59" height="77" viewBox="0 0 59 77" fill="none" xmlns="http://www.w3.org/2000/svg">
<path d="M39.0321 35.1674H21.7078C20.2141 35.1674 19.0029 33.9562 19.0029 32.4625C19.0029 30.9687 20.2141 29.7575 21.7078 29.7575H39.0321C40.5258 29.7575 41.737 30.9687 41.737 32.4625C41.737 33.9562 40.5262 35.1674 39.0321 35.1674Z" fill="#939598"/>
<path d="M39.9776 29.9308C40.0877 30.2255 40.1508 30.543 40.1508 30.8764C40.1508 32.3702 38.9396 33.5813 37.4459 33.5813H20.1216C19.7886 33.5813 19.4707 33.5182 19.176 33.4081C19.5599 34.4349 20.547 35.1674 21.7077 35.1674H39.032C40.5257 35.1674 41.7369 33.9563 41.7369 32.4625C41.7369 31.3018 41.0044 30.3146 39.9776 29.9308Z" fill="#808285"/>
<path d="M49.403 4.19806H11.3369V21.599C11.3369 22.7233 11.9317 23.7634 12.9008 24.3331L22.1223 29.7576H38.6176L47.8392 24.3331C48.8079 23.7631 49.403 22.7229 49.403 21.599V4.19806Z" fill="#50A7EA"/>
<path d="M13.2404 19.5089C12.8902 19.5089 12.606 19.2247 12.606 18.8744V8.72348C12.606 8.37327 12.8902 8.08904 13.2404 8.08904C13.5906 8.08904 13.8748 8.37327 13.8748 8.72348V18.8744C13.8748 19.225 13.5906 19.5089 13.2404 19.5089ZM13.2404 6.82017C12.8902 6.82017 12.606 6.53594 12.606 6.18573V6.10135C12.606 5.75115 12.8902 5.46692 13.2404 5.46692C13.5906 5.46692 13.8748 5.75115 13.8748 6.10135V6.18573C13.8748 6.53626 13.5906 6.82017 13.2404 6.82017Z" fill="#50A7EA"/>
<path d="M46.2309 4.19806V18.4269C46.2309 19.5511 45.6361 20.5912 44.667 21.161L35.4455 26.5854H18.9502L11.3887 22.1374C11.5457 23.0471 12.0894 23.8557 12.9008 24.3331L22.1224 29.7576H38.6177L47.8392 24.3331C48.808 23.7631 49.4031 22.7229 49.4031 21.599V4.19806H46.2309Z" fill="#75C2FE"/>
<path d="M47.8172 4.19806V20.013C47.8172 21.1372 47.2224 22.1773 46.2533 22.747L37.0318 28.1715H20.5364L11.6404 22.9387C11.9075 23.5106 12.3386 24.0023 12.9007 24.3331L22.1222 29.7576H38.6175L47.8391 24.3331C48.8078 23.7631 49.4029 22.7229 49.4029 21.599V4.19806H47.8172Z" fill="#3E89C4"/>
<path d="M51.4279 4.19806H9.31216C8.15305 4.19806 7.21313 3.25846 7.21313 2.09903C7.21313 0.939916 8.15273 0 9.31216 0H51.4279C52.587 0 53.5269 0.939599 53.5269 2.09903C53.5269 3.25846 52.587 4.19806 51.4279 4.19806Z" fill="#939598"/>
<path d="M52.5593 0.333069C52.769 0.659803 52.8924 1.04744 52.8924 1.46458C52.8924 2.6237 51.9528 3.56361 50.7934 3.56361H8.67766C8.26052 3.56361 7.87288 3.44053 7.54614 3.23054C7.91951 3.81168 8.57012 4.19805 9.31209 4.19805H51.4282C52.5873 4.19805 53.5272 3.25845 53.5272 2.09902C53.5269 1.35705 53.1408 0.706434 52.5593 0.333069Z" fill="#808285"/>
<path d="M24.0256 4.19806H36.7143V29.7576H24.0256V4.19806Z" fill="#F1F2F2"/>
<path d="M24.0256 28.1714H36.7143V29.7575H24.0256V28.1714Z" fill="#E6E7E8"/>
<path d="M49.403 64.6705V46.356C49.403 45.2226 48.7984 44.1754 47.817 43.6089L31.9561 34.4514C30.9746 33.8849 29.7654 33.8849 28.7839 34.4514L12.923 43.6089C11.9415 44.1754 11.3369 45.2229 11.3369 46.356V64.6705C11.3369 65.804 11.9415 66.8511 12.923 67.4176L28.7839 76.5751C29.7654 77.1416 30.9746 77.1416 31.9561 76.5751L47.817 67.4176C48.7984 66.8511 49.403 65.804 49.403 64.6705Z" fill="#50A7EA"/>
<path d="M47.817 43.6089L47.5163 43.435C47.7079 43.8474 47.817 44.2998 47.817 44.7699V63.0844C47.817 64.2179 47.2124 65.265 46.2309 65.8316L30.37 74.9887C29.3886 75.5552 28.1793 75.5552 27.1979 74.9887L11.6377 66.0051C11.9083 66.5868 12.3486 67.0858 12.9231 67.4173L28.7839 76.5745C29.7654 77.141 30.9747 77.141 31.9561 76.5745L47.817 67.4173C48.7985 66.8508 49.4031 65.8033 49.4031 64.6702V46.3557C49.4031 45.2226 48.7985 44.1754 47.817 43.6089Z" fill="#70AABF"/>
<path d="M45.011 62.1347V48.8918C45.011 47.7584 44.4064 46.7113 43.4249 46.1447L31.9562 39.5234C30.9747 38.9569 29.7655 38.9569 28.784 39.5234L17.3153 46.1447C16.3339 46.7113 15.7292 47.7587 15.7292 48.8918V62.1347C15.7292 63.2681 16.3339 64.3153 17.3153 64.8818L28.784 71.5031C29.7655 72.0696 30.9747 72.0696 31.9562 71.5031L43.4249 64.8818C44.4064 64.3153 45.011 63.2681 45.011 62.1347Z" fill="#3E89C4"/>
<path d="M43.4249 46.1447L43.1242 45.9709C43.3158 46.3833 43.4249 46.8356 43.4249 47.3057V60.5486C43.4249 61.6821 42.8203 62.7292 41.8389 63.2957L30.3702 69.917C29.3887 70.4836 28.1795 70.4836 27.198 69.917L16.03 63.4693C16.3006 64.051 16.7409 64.55 17.3154 64.8815L28.7841 71.5028C29.7656 72.0693 30.9748 72.0693 31.9563 71.5028L43.4249 64.8815C44.4064 64.315 45.011 63.2675 45.011 62.1344V48.8915C45.011 47.7584 44.4064 46.7113 43.4249 46.1447Z" fill="#3E89C4"/>
<path d="M30.9734 46.8667L32.9047 52.8101H39.1542C39.7686 52.8101 40.0243 53.5965 39.5272 53.9578L34.4714 57.6312L36.4026 63.5746C36.5926 64.1592 35.9236 64.6452 35.4262 64.2839L30.3704 60.6105L25.3146 64.2839C24.8175 64.6452 24.1485 64.1592 24.3382 63.5746L26.2694 57.6312L21.2136 53.9578C20.7165 53.5965 20.9719 52.8101 21.5867 52.8101H27.8358L29.7671 46.8667C29.9564 46.2821 30.7834 46.2821 30.9734 46.8667Z" fill="white"/>
<path d="M3.71486 56.7287L3.91724 57.6715C4.1301 58.6621 4.90379 59.4358 5.89446 59.6487L6.83723 59.8511C7.06468 59.8999 7.06468 60.2241 6.83723 60.273L5.89446 60.4754C4.90379 60.6882 4.1301 61.4619 3.91724 62.4526L3.71486 63.3953C3.66601 63.6228 3.34181 63.6228 3.29296 63.3953L3.09057 62.4526C2.87772 61.4619 2.10403 60.6882 1.11335 60.4754L0.170584 60.273C-0.0568613 60.2241 -0.0568613 59.8999 0.170584 59.8511L1.11335 59.6487C2.10403 59.4358 2.87772 58.6621 3.09057 57.6715L3.29296 56.7287C3.34181 56.5016 3.66601 56.5016 3.71486 56.7287Z" fill="#50A7EA"/>
<path d="M7.76678 66.3334L8.06338 67.7149C8.37521 69.1665 9.50894 70.3002 10.9605 70.612L12.342 70.9086C12.6751 70.98 12.6751 71.4555 12.342 71.5269L10.9605 71.8235C9.50894 72.1353 8.37521 73.269 8.06338 74.7206L7.76678 76.1021C7.69541 76.4352 7.2199 76.4352 7.14853 76.1021L6.85193 74.7206C6.5401 73.269 5.40637 72.1353 3.95478 71.8235L2.5733 71.5269C2.24022 71.4555 2.24022 70.98 2.5733 70.9086L3.95478 70.612C5.40637 70.3002 6.5401 69.1665 6.85193 67.7149L7.14853 66.3334C7.2199 66.0003 7.69541 66.0003 7.76678 66.3334Z" fill="#50A7EA"/>
<path d="M53.8718 36.0978L54.129 37.2962C54.3993 38.5553 55.383 39.5387 56.642 39.8092L57.8405 40.0665C58.1295 40.1287 58.1295 40.5407 57.8405 40.6029L56.642 40.8602C55.383 41.1305 54.3996 42.1141 54.129 43.3732L53.8718 44.5716C53.8096 44.8606 53.3975 44.8606 53.3354 44.5716L53.0781 43.3732C52.8078 42.1141 51.8241 41.1308 50.5651 40.8602L49.3666 40.6029C49.0777 40.5407 49.0777 40.1287 49.3666 40.0665L50.5651 39.8092C51.8241 39.539 52.8075 38.5553 53.0781 37.2962L53.3354 36.0978C53.3975 35.8091 53.8096 35.8091 53.8718 36.0978Z" fill="#50A7EA"/>
</svg>
