<svg width="12" height="12" viewBox="0 0 12 12" fill="none" xmlns="http://www.w3.org/2000/svg">
<path fill-rule="evenodd" clip-rule="evenodd" d="M5.8 -5.24537e-08C6.46274 -2.34843e-08 7 0.537258 7 1.2L7 10.8C7 11.4627 6.46274 12 5.8 12C5.13726 12 4.6 11.4627 4.6 10.8L4.6 1.2C4.6 0.537258 5.13726 -8.1423e-08 5.8 -5.24537e-08Z" fill="#F33180"/>
<path fill-rule="evenodd" clip-rule="evenodd" d="M12 5.8C12 6.46274 11.4627 7 10.8 7L1.2 7C0.537258 7 0 6.46274 0 5.8C0 5.13726 0.537258 4.6 1.2 4.6L10.8 4.6C11.4627 4.6 12 5.13726 12 5.8Z" fill="#F33180"/>
</svg>
