<svg width="27" height="27" viewBox="0 0 27 27" fill="none" xmlns="http://www.w3.org/2000/svg">
<path fill-rule="evenodd" clip-rule="evenodd" d="M17.7297 4.17233C17.5644 3.55554 17.1003 3.06364 16.4953 2.86198C15.8904 2.66033 15.2238 2.77676 14.7226 3.17079C11.9905 5.31814 6.50363 9.63054 6.50363 9.63054C6.30451 9.78748 6.2176 10.0474 6.28341 10.292L7.96585 16.5704C8.03082 16.8151 8.23585 16.9973 8.48644 17.0328C8.48644 17.0328 15.3951 18.0242 18.835 18.5178C19.4662 18.6089 20.1007 18.376 20.5242 17.8985C20.9478 17.4217 21.103 16.7636 20.9385 16.1477C20.1294 13.1304 18.538 7.18958 17.7297 4.17233ZM16.5071 4.4997C17.3154 7.51695 18.9068 13.4578 19.7159 16.475C19.7708 16.6801 19.7193 16.8995 19.5775 17.0589C19.4366 17.2175 19.2249 17.2952 19.0148 17.2648L9.0796 15.8397L7.61401 10.368L15.5048 4.16558C15.6718 4.03479 15.8937 3.99598 16.0954 4.06264C16.297 4.13014 16.4514 4.29383 16.5071 4.4997Z" fill="#313855"/>
<path fill-rule="evenodd" clip-rule="evenodd" d="M7.50602 9.9647C7.41489 9.6272 7.06811 9.42639 6.73061 9.51667C6.73061 9.51667 5.15533 9.93939 3.87198 10.2828C3.27714 10.4423 2.77005 10.8312 2.46292 11.3645C2.15495 11.8969 2.07142 12.5305 2.23089 13.1245C2.4798 14.0535 2.7903 15.2145 3.0392 16.1435C3.19867 16.7375 3.58764 17.2446 4.12089 17.5517C4.6533 17.8597 5.28695 17.9432 5.8818 17.7837C7.16514 17.4395 8.74042 17.0176 8.74042 17.0176C9.07792 16.9273 9.27874 16.5805 9.18761 16.243L7.50602 9.9647ZM6.44711 10.903L7.80133 15.9587L5.55358 16.5611C5.28358 16.6337 4.99586 16.5957 4.7537 16.4557C4.51155 16.3165 4.33436 16.0861 4.2618 15.8153L3.45348 12.7972C3.38092 12.5272 3.41889 12.2395 3.55895 11.9973C3.69817 11.7551 3.92936 11.578 4.19936 11.5054L6.44711 10.903Z" fill="#313855"/>
<path fill-rule="evenodd" clip-rule="evenodd" d="M9.70985 15.93C9.49892 15.8996 9.28713 15.9773 9.14623 16.1359C9.00532 16.2954 8.95301 16.5147 9.0087 16.7198L9.84401 19.8391C9.92923 20.1563 10.2423 20.3555 10.5663 20.2981C10.6498 20.2838 10.7333 20.2652 10.8177 20.2424C12.3255 19.8383 13.2502 18.3414 12.9701 16.832C12.9203 16.5654 12.706 16.3595 12.4377 16.3215L9.70985 15.93ZM10.8911 18.8553L10.4794 17.3188L11.7492 17.5011C11.707 18.063 11.3855 18.5752 10.8911 18.8553Z" fill="#313855"/>
<path fill-rule="evenodd" clip-rule="evenodd" d="M10.2304 16.3924C10.1654 16.1477 9.96041 15.9654 9.70982 15.93L8.66694 15.7798C8.58172 15.768 8.49566 15.7731 8.41297 15.795L6.2091 16.3856C6.03444 16.4329 5.88847 16.5519 5.80747 16.713C5.72647 16.875 5.71804 17.0632 5.78554 17.2311C5.78554 17.2311 7.214 20.817 7.94047 22.6429C8.29569 23.5347 9.26263 24.0199 10.1899 23.771C11.2303 23.4925 11.847 22.4235 11.5686 21.384L10.2304 16.3924ZM9.11666 17.1231L10.346 21.7114C10.4439 22.0759 10.227 22.4505 9.86254 22.5484C9.55457 22.6311 9.23394 22.4708 9.11666 22.1746L7.22413 17.4243L8.61547 17.0514L9.11666 17.1231Z" fill="#313855"/>
<path fill-rule="evenodd" clip-rule="evenodd" d="M24.3136 8.38941L21.8658 9.04585C21.5283 9.13613 21.3284 9.48291 21.4186 9.82041C21.5089 10.1579 21.8566 10.3587 22.1932 10.2676L24.6409 9.61201C24.9784 9.52172 25.1792 9.1741 25.089 8.83744C24.9978 8.49994 24.6511 8.29913 24.3136 8.38941Z" fill="#313855"/>
<path fill-rule="evenodd" clip-rule="evenodd" d="M21.8548 3.79266L19.818 5.2996C19.537 5.50801 19.4779 5.90457 19.6855 6.18469C19.893 6.46566 20.2896 6.52557 20.5706 6.31716L22.6074 4.81023C22.8884 4.60266 22.9474 4.2061 22.7399 3.92513C22.5323 3.64501 22.1357 3.5851 21.8548 3.79266Z" fill="#313855"/>
<path fill-rule="evenodd" clip-rule="evenodd" d="M24.8864 13.5869L22.3737 13.2604C22.0269 13.2157 21.7096 13.4604 21.6641 13.8072C21.6194 14.1531 21.8641 14.4712 22.2108 14.5159L24.7235 14.8416C25.0695 14.8863 25.3876 14.6416 25.4323 14.2957C25.477 13.9489 25.2323 13.6317 24.8864 13.5869Z" fill="#313855"/>
</svg>
