<svg width="45" height="45" viewBox="0 0 45 45" fill="none" xmlns="http://www.w3.org/2000/svg">
<g clip-path="url(#clip0_1775_20148)">
<path d="M22.5 0C18.0499 0 13.6998 1.3196 9.99968 3.79193C6.29957 6.26427 3.41569 9.77829 1.71272 13.8896C0.00974894 18.001 -0.435826 22.525 0.432341 26.8895C1.30051 31.2541 3.44343 35.2632 6.59011 38.4099C9.73679 41.5566 13.7459 43.6995 18.1105 44.5677C22.4751 45.4358 26.9991 44.9903 31.1104 43.2873C35.2217 41.5843 38.7357 38.7004 41.2081 35.0003C43.6804 31.3002 45 26.9501 45 22.5C44.9933 16.5347 42.6206 10.8157 38.4025 6.59755C34.1844 2.37945 28.4653 0.00674921 22.5 0V0ZM30.857 19.1382L21.482 28.5132C21.3079 28.6874 21.1012 28.8255 20.8738 28.9197C20.6463 29.014 20.4025 29.0625 20.1563 29.0625C19.91 29.0625 19.6662 29.014 19.4388 28.9197C19.2113 28.8255 19.0046 28.6874 18.8305 28.5132L14.143 23.8257C13.9653 23.6524 13.8238 23.4456 13.7266 23.2172C13.6294 22.9887 13.5786 22.7433 13.577 22.4951C13.5754 22.2469 13.6232 22.0008 13.7174 21.7712C13.8117 21.5415 13.9506 21.3329 14.1261 21.1574C14.3017 20.9819 14.5103 20.8429 14.7399 20.7487C14.9696 20.6544 15.2156 20.6067 15.4638 20.6082C15.7121 20.6098 15.9575 20.6607 16.1859 20.7578C16.4143 20.855 16.6212 20.9965 16.7945 21.1743L20.1563 24.5357L28.2055 16.4868C28.3788 16.309 28.5857 16.1675 28.8141 16.0703C29.0425 15.9732 29.288 15.9223 29.5362 15.9207C29.7844 15.9192 30.0305 15.9669 30.2601 16.0612C30.4897 16.1554 30.6984 16.2944 30.8739 16.4699C31.0494 16.6454 31.1883 16.854 31.2826 17.0837C31.3769 17.3133 31.4246 17.5594 31.423 17.8076C31.4215 18.0558 31.3706 18.3012 31.2734 18.5297C31.1763 18.7581 31.0347 18.9649 30.857 19.1382Z" fill="#24CF5B"/>
</g>
<defs>
<clipPath id="clip0_1775_20148">
<rect width="45" height="45" fill="white"/>
</clipPath>
</defs>
</svg>
