<svg width="60" height="60" viewBox="0 0 60 60" fill="none" xmlns="http://www.w3.org/2000/svg">
<path d="M30 60C46.5685 60 60 46.5685 60 30C60 13.4315 46.5685 0 30 0C13.4315 0 0 13.4315 0 30C0 46.5685 13.4315 60 30 60Z" fill="#1590CD"/>
<path fill-rule="evenodd" clip-rule="evenodd" d="M23.3511 21.0001L37.7607 21C38.2705 21 38.7799 21.0749 39.3123 21.3231C39.9504 21.6205 40.2888 22.0894 40.5259 22.4362C40.5443 22.4631 40.5616 22.4909 40.5776 22.5194C40.8563 23.0156 41 23.5513 41 24.1277C41 24.6753 40.8697 25.2718 40.5776 25.7918C40.5748 25.7969 40.572 25.8017 40.5691 25.8067L31.4653 41.445C31.2646 41.7899 30.8951 42.0014 30.496 42C30.097 41.9986 29.729 41.7844 29.5307 41.4381L20.5941 25.8332C20.5915 25.829 20.589 25.8248 20.5864 25.8204C20.3819 25.4834 20.0656 24.9623 20.0103 24.2897C19.9594 23.6712 20.0984 23.0515 20.4092 22.5141C20.72 21.9767 21.1878 21.5471 21.7506 21.2842C22.354 21.0022 22.9654 21.0001 23.3511 21.0001ZM29.383 23.2341H23.3511C22.9548 23.2341 22.8026 23.2585 22.6963 23.3082C22.5492 23.3768 22.4257 23.4898 22.3431 23.6325C22.2605 23.7754 22.2232 23.9409 22.2368 24.1066C22.2446 24.2016 22.2833 24.3102 22.5117 24.6869C22.5165 24.6948 22.5211 24.7028 22.5257 24.7108L29.383 36.6847V23.2341ZM31.617 23.2341V36.7439L38.6331 24.6918C38.7123 24.5479 38.7659 24.34 38.7659 24.1277C38.7659 23.9554 38.7303 23.8059 38.6504 23.6517C38.5667 23.5312 38.5156 23.4675 38.473 23.4238C38.4364 23.3865 38.4082 23.3665 38.3684 23.3479C38.2025 23.2706 38.0327 23.2341 37.7607 23.2341H31.617Z" fill="white"/>
</svg>
