<svg width="63" height="63" viewBox="0 0 63 63" fill="none" xmlns="http://www.w3.org/2000/svg">
<path d="M31.5 63C48.897 63 63 48.897 63 31.5C63 14.103 48.897 0 31.5 0C14.103 0 0 14.103 0 31.5C0 48.897 14.103 63 31.5 63Z" fill="#2775C9"/>
<path d="M31.0078 54.1406C18.2306 54.1406 7.875 43.785 7.875 31.0078C7.875 18.2306 18.2306 7.875 31.0078 7.875C43.785 7.875 54.1406 18.2306 54.1406 31.0078C54.1406 37.143 51.7034 43.0269 47.3652 47.3652C43.0269 51.7034 37.143 54.1406 31.0078 54.1406V54.1406ZM29.6297 22.4241C28.364 22.4868 27.1675 23.0205 26.275 23.9202C25.3826 24.8199 24.8587 26.0207 24.8063 27.2869C24.8063 29.6691 26.2631 31.2244 29.3541 31.8741L31.5197 32.3859C33.6263 32.8781 34.4925 33.5869 34.4925 34.7878C34.4925 35.9888 32.9766 37.17 31.0078 37.17C30.3085 37.2341 29.6053 37.1001 28.9786 36.7833C28.3519 36.4664 27.827 35.9796 27.4641 35.3784C27.3565 35.1503 27.1867 34.9572 26.9743 34.8214C26.7618 34.6856 26.5153 34.6125 26.2631 34.6106H25.1016C25.0122 34.6272 24.9271 34.6612 24.8509 34.7108C24.7748 34.7604 24.7093 34.8245 24.658 34.8996C24.6068 34.9746 24.5709 35.059 24.5524 35.1479C24.5339 35.2369 24.5332 35.3286 24.5503 35.4178C24.8333 36.5726 25.4911 37.601 26.4209 38.342C27.3507 39.0829 28.4999 39.4947 29.6887 39.5128V41.1666C29.6887 41.5347 29.835 41.8877 30.0953 42.148C30.3556 42.4083 30.7086 42.5545 31.0767 42.5545C31.4448 42.5545 31.7979 42.4083 32.0582 42.148C32.3185 41.8877 32.4647 41.5347 32.4647 41.1666V39.4931C33.8089 39.4779 35.0941 38.9385 36.0465 37.9897C36.9989 37.041 37.5433 35.7579 37.5637 34.4137C37.5637 31.9134 36.1266 30.4762 32.7206 29.7478L30.7519 29.3147C28.7831 28.8225 27.8578 28.1728 27.8578 27.0703C27.8578 25.9678 29.0391 24.7472 31.0078 24.7472C31.6278 24.6824 32.2534 24.7985 32.8088 25.0815C33.3643 25.3645 33.826 25.8022 34.1381 26.3419C34.2647 26.6114 34.465 26.8395 34.7159 26.9998C34.9667 27.1601 35.2579 27.246 35.5556 27.2475H36.4809C36.6913 27.196 36.8731 27.0641 36.9872 26.88C37.1014 26.6959 37.1387 26.4744 37.0913 26.2631C36.8245 25.1969 36.2279 24.2422 35.3865 23.5351C34.5451 22.828 33.5018 22.4047 32.4056 22.3256V20.9672C32.4056 20.5991 32.2594 20.246 31.9991 19.9857C31.7388 19.7254 31.3858 19.5792 31.0177 19.5792C30.6495 19.5792 30.2965 19.7254 30.0362 19.9857C29.7759 20.246 29.6297 20.5991 29.6297 20.9672V22.4241V22.4241ZM13.6631 31.0078C13.6654 34.6344 14.8069 38.1686 16.9265 41.1113C19.0461 44.054 22.0366 46.2564 25.4756 47.4075H25.7512C25.9862 47.4075 26.2116 47.3142 26.3777 47.148C26.5438 46.9819 26.6372 46.7565 26.6372 46.5216V46.1081C26.6378 45.7416 26.5297 45.3832 26.3264 45.0783C26.1231 44.7734 25.8338 44.5357 25.4953 44.3953C22.817 43.3143 20.5229 41.4575 18.9075 39.0633C17.292 36.6691 16.4288 33.8468 16.4288 30.9586C16.4288 28.0704 17.292 25.248 18.9075 22.8539C20.5229 20.4597 22.817 18.6029 25.4953 17.5219C25.8323 17.385 26.1209 17.1508 26.3242 16.8493C26.5276 16.5478 26.6366 16.1925 26.6372 15.8287V15.3759C26.6385 15.243 26.6077 15.1117 26.5474 14.9932C26.4871 14.8747 26.3992 14.7724 26.291 14.6952C26.1828 14.6179 26.0575 14.5678 25.9259 14.5492C25.7942 14.5307 25.66 14.5441 25.5347 14.5884C22.0814 15.7305 19.0758 17.9316 16.9447 20.8791C14.8136 23.8266 13.6654 27.3706 13.6631 31.0078V31.0078ZM48.3525 31.0078C48.3461 27.3846 47.2027 23.8548 45.0834 20.916C42.9641 17.9773 39.9759 15.7778 36.54 14.6278H36.2447C35.9993 14.6278 35.7639 14.7253 35.5904 14.8988C35.4169 15.0724 35.3194 15.3077 35.3194 15.5531V15.8484C35.3273 16.2281 35.4449 16.5975 35.658 16.9118C35.8711 17.2262 36.1706 17.4723 36.5203 17.6203C39.1925 18.7045 41.4804 20.5614 43.0912 22.9533C44.702 25.3453 45.5625 28.1634 45.5625 31.0472C45.5625 33.9309 44.702 36.7491 43.0912 39.141C41.4804 41.533 39.1925 43.3898 36.5203 44.4741C36.1772 44.6236 35.8839 44.8679 35.6747 45.1782C35.4655 45.4886 35.349 45.8521 35.3391 46.2262V46.5609C35.3407 46.7069 35.3769 46.8504 35.4447 46.9797C35.5124 47.109 35.6098 47.2204 35.7288 47.3049C35.8478 47.3894 35.9852 47.4445 36.1296 47.4657C36.274 47.487 36.4214 47.4738 36.5597 47.4272C39.9982 46.2717 42.9867 44.0648 45.1029 41.1185C47.219 38.1722 48.3558 34.6353 48.3525 31.0078V31.0078Z" fill="white"/>
</svg>
