<svg width="63" height="63" viewBox="0 0 63 63" fill="none" xmlns="http://www.w3.org/2000/svg">
<path d="M31.5 63C48.897 63 63 48.897 63 31.5C63 14.103 48.897 0 31.5 0C14.103 0 0 14.103 0 31.5C0 48.897 14.103 63 31.5 63Z" fill="#26A17B"/>
<path fill-rule="evenodd" clip-rule="evenodd" d="M34.6933 34.5791V34.5752C34.4767 34.5909 33.3605 34.6579 30.87 34.6579C28.8816 34.6579 27.4818 34.5988 26.9896 34.5752V34.5811C19.3351 34.2444 13.6218 32.9116 13.6218 31.3169C13.6218 29.7242 19.3351 28.3913 26.9896 28.0488V33.2542C27.4897 33.2896 28.9229 33.3742 30.9035 33.3742C33.2797 33.3742 34.4708 33.2758 34.6933 33.2561V28.0527C42.3321 28.3933 48.0316 29.7262 48.0316 31.3169C48.0316 32.9116 42.3321 34.2405 34.6933 34.5791V34.5791ZM34.6933 27.5113V22.8533H45.3521V15.75H16.3308V22.8533H26.9896V27.5093C18.3271 27.907 11.8125 29.6238 11.8125 31.6792C11.8125 33.7345 18.3271 35.4493 26.9896 35.849V50.776H34.6933V35.845C43.342 35.4473 49.8409 33.7326 49.8409 31.6792C49.8409 29.6257 43.342 27.911 34.6933 27.5113" fill="white"/>
</svg>
