<svg width="23" height="22" viewBox="0 0 23 22" fill="none" xmlns="http://www.w3.org/2000/svg">
<path d="M16.1406 13.75C16.8051 13.75 17.3438 13.2113 17.3438 12.5469C17.3438 11.8824 16.8051 11.3438 16.1406 11.3438C15.4762 11.3438 14.9375 11.8824 14.9375 12.5469C14.9375 13.2113 15.4762 13.75 16.1406 13.75Z" fill="#50A7EA"/>
<path d="M18.7188 5.53094V4.46875C18.7188 3.92706 18.5058 3.40709 18.1256 3.02117C17.7455 2.63526 17.2288 2.41438 16.6872 2.40625H5.93812C2.90625 2.40625 2.60031 4.89156 2.5625 6.14625V6.1875V17.1875C2.5625 17.7345 2.7798 18.2591 3.16659 18.6459C3.55339 19.0327 4.07799 19.25 4.625 19.25H18.375C18.922 19.25 19.4466 19.0327 19.8334 18.6459C20.2202 18.2591 20.4375 17.7345 20.4375 17.1875V7.5625C20.437 7.07545 20.2642 6.60429 19.9496 6.23245C19.635 5.86062 19.199 5.61211 18.7188 5.53094ZM5.93812 3.78125H16.6872C16.8641 3.78922 17.0311 3.86516 17.1534 3.99323C17.2758 4.12131 17.3439 4.29165 17.3438 4.46875V5.5H3.99938C4.17469 4.25219 4.74531 3.78125 5.93812 3.78125ZM19.0625 17.1875C19.0625 17.3698 18.9901 17.5447 18.8611 17.6736C18.7322 17.8026 18.5573 17.875 18.375 17.875H4.625C4.44266 17.875 4.2678 17.8026 4.13886 17.6736C4.00993 17.5447 3.9375 17.3698 3.9375 17.1875V6.875H18.375C18.5573 6.875 18.7322 6.94743 18.8611 7.07636C18.9901 7.2053 19.0625 7.38016 19.0625 7.5625V17.1875Z" fill="#50A7EA"/>
</svg>
